/* XPM */
static char *e3bafbb13cd740cf8527edb098c27864cvog2Iq3ASBCrlGD[] = {
/* columns rows colors chars-per-pixel */
"50 50 211 2 ",
"   c #060E21",
".  c #090F22",
"X  c #061225",
"o  c #0B1425",
"O  c #0D1827",
"+  c #07172D",
"@  c #0D1629",
"#  c #0D1A2C",
"$  c #101727",
"%  c #10172A",
"&  c #131B2D",
"*  c #181F2F",
"=  c #0E1C33",
"-  c #0B1938",
";  c #0E1E3B",
":  c #141D32",
">  c #191E32",
",  c #121E3A",
"<  c #181F39",
"1  c #0D202F",
"2  c #15212F",
"3  c #1C232F",
"4  c #0E2234",
"5  c #07203F",
"6  c #0E213C",
"7  c #0F2B39",
"8  c #152235",
"9  c #1A2234",
"0  c #172937",
"q  c #1E2935",
"w  c #14223C",
"e  c #16223C",
"r  c #16253E",
"t  c #1B253A",
"y  c #132B3B",
"u  c #1C293C",
"i  c #1A303D",
"p  c #202737",
"a  c #21273B",
"s  c #222A3D",
"d  c #282F3F",
"f  c #071F45",
"g  c #071E48",
"h  c #131E42",
"j  c #181F49",
"k  c #081E50",
"l  c #0C2344",
"z  c #0F2847",
"x  c #0D244A",
"c  c #162641",
"v  c #142443",
"b  c #132646",
"n  c #152646",
"m  c #192641",
"M  c #192643",
"N  c #162845",
"B  c #162946",
"V  c #192841",
"C  c #192A46",
"Z  c #1C2944",
"A  c #14264A",
"S  c #1A264A",
"D  c #14294B",
"F  c #162A4A",
"G  c #1C2B4C",
"H  c #0C2352",
"J  c #0B225D",
"K  c #102752",
"L  c #1A2754",
"P  c #152B53",
"I  c #1C2D53",
"U  c #10275D",
"Y  c #162E5C",
"T  c #1A2F5A",
"R  c #1C3055",
"E  c #16315D",
"W  c #1D3058",
"Q  c #1C325C",
"!  c #232C43",
"~  c #292F45",
"^  c #20254B",
"/  c #222D4B",
"(  c #282E48",
")  c #253244",
"_  c #2A3346",
"`  c #24314C",
"'  c #2C344C",
"]  c #2C3C4F",
"[  c #30364E",
"{  c #323A4D",
"}  c #222D51",
"|  c #2A2E53",
" . c #232E5A",
".. c #233254",
"X. c #2B3453",
"o. c #2E3B54",
"O. c #23345C",
"+. c #2B345C",
"@. c #22385F",
"#. c #2D3A5D",
"$. c #313653",
"%. c #333C54",
"&. c #31365C",
"*. c #343C5B",
"=. c #383E5A",
"-. c #0B2663",
";. c #0B2967",
":. c #132C65",
">. c #122D69",
",. c #1D3563",
"<. c #1B3769",
"1. c #1C346C",
"2. c #1D3A6B",
"3. c #122F71",
"4. c #163574",
"5. c #193772",
"6. c #143876",
"7. c #1C3A74",
"8. c #1C3D7B",
"9. c #222E60",
"0. c #243662",
"q. c #293662",
"w. c #243965",
"e. c #2C3C64",
"r. c #23366A",
"t. c #293368",
"y. c #233B6B",
"u. c #2B3C6C",
"i. c #303761",
"p. c #363D64",
"a. c #333E69",
"s. c #383F69",
"d. c #243D72",
"f. c #273877",
"g. c #2A3F71",
"h. c #353F70",
"j. c #364156",
"k. c #384355",
"l. c #34435B",
"z. c #394659",
"x. c #3D4A5F",
"c. c #1F427C",
"v. c #2F426F",
"b. c #324062",
"n. c #3A4662",
"m. c #34426B",
"M. c #39416C",
"N. c #244274",
"B. c #2B4374",
"V. c #24437B",
"C. c #2B447C",
"Z. c #2D4A7D",
"A. c #324374",
"S. c #324679",
"D. c #344A7D",
"F. c #3B4B7C",
"G. c #414D64",
"H. c #424A6B",
"J. c #475468",
"K. c #444772",
"L. c #434A72",
"P. c #434E7C",
"I. c #4E5975",
"U. c #47517D",
"Y. c #4B537D",
"T. c #313E82",
"R. c #1F4180",
"E. c #2B4C84",
"W. c #334B84",
"Q. c #3B4D82",
"!. c #3A4B88",
"~. c #3B5387",
"^. c #3A5488",
"/. c #3B4E90",
"(. c #365297",
"). c #3C5494",
"_. c #454E82",
"`. c #45548A",
"'. c #48578E",
"]. c #45588D",
"[. c #4C598D",
"{. c #555A85",
"}. c #545D8C",
"|. c #475596",
" X c #495694",
".X c #435996",
"XX c #4A5D93",
"oX c #44569C",
"OX c #455B9B",
"+X c #545E92",
"@X c #55628F",
"#X c #556293",
"$X c #596796",
"%X c #54639B",
"&X c #59669D",
"*X c #67738B",
"=X c #666C99",
"-X c #4C5EA8",
";X c #4A60A9",
":X c #5162A3",
">X c #5D6EA2",
",X c #5569A9",
"<X c #5F73AC",
"1X c #566BB1",
"2X c #616CA2",
"3X c #6A70A0",
"4X c #6B79A6",
"5X c #7179AA",
"6X c #6477B9",
"7X c #6E82B8",
"8X c #7B8CC2",
/* pixels */
"c c , v ; , , w w e : = = + = = = 4 8 = : + # X @ & % @ @ % : % 9 % % & & % p . & > . > > . a * * > ",
"6 C v ; m , : r w = : : 8 r # = + 4 # = # O & 0   @ o @ @ @ & @ . > % & % % : > & % % % . > 3 a : > ",
"n w w c w w c w w w 8 w = + = # 4 8 + 4 & + # o @ # @ @ @ o & % > & % @ : % & . . % * % . * & & * 2 ",
"C N ; w v m m M w r ; # ; = = 4 = y # ; + o # # @ @ # & & % & & % & & : % % & % % % . % % . & & 9 9 ",
"N C N N ; c N Z w r ; N ; + N + 4 w + 4 = 8 2 o # X % # % : @ % > . & % % % p . * & . > o > % * 2 q ",
"G G n C G R n m w r N w ; 8 + 8 4 8 8 4 1 + + # 9 # & o @ & @ : @ > @ & . & o & % $ * $ > > 9 & 8 s ",
"D A O...D b R c N 6 6 6 4 r r 6 r = = # # = # 2 O O % % & : % & % : & & % & % * % $ $ * % * : u 2 0 ",
"I I ..D R D G b b N N r 6 6 4 6 = 6 y = 4 # # # O # @ & % @ % % & : & % & * $ o % & [ o 9 % 9 * 8 2 ",
"P R I Q R R A z z D D 6 b 4 6 4 V 8 w + # 8 X 8 # o @ % # @ % @ & @ @ > & & % % % * o 9 # ) & t q q ",
"Q Q 0.P R E R R D D A n b w 6 C r w = w y # + # + o * # @ * @ & > w @ ! e o : o 9 o : : * t ) : q 3 ",
"r.T ,.Y O.w.P P R P D D l r w 6 y 6 ; 0 = # 0 @ & & # # % @ = @ : @ @ : > % > > % % a 9 8 w ' t 9 3 ",
"g.,.r.B.<.2.E R P Q P z D G N c r w w 4 = w = # # & # O & > - : : : @ : % & & > : % t # 8 ~ t ) t 9 ",
"y.d.r.d.B.1.,.2.N.R Q @.C N c w b + w w = : # # & 9 w + - < < & < w 8 : < > : % : : : < t w ` 8 ) q ",
"1.f.f.5.~.B.N.y.2.R Q R R D l N r N r 4 8 4 + 8 = 9 : : > % < < @ : t : : % > > t @ : w u G ! u ) 9 ",
"C.d.W.W.W.B.~.7.B.<.,.@.R ..C r C C N 4 , : 8 : & @ : : = : : ^ < m X < t a < % p > : & u ' / ) s q ",
").!.E.E.W.W.Z.B.B.b.v.@.@.....G C n D c w = = = : w : : @ : w & , = m : t > : : & t t w Z Z ) / s t ",
"OX;XOX.XXX~.D.~.S.w.u.O.O.i...O.L R G C ; r w - : = w > w > : w , m m t m > : 8 u > : ! u Z ` o.i 0 ",
"OXOX6X,X!.XX~.F.F.B.e.q. ...I ..w.Q O.../ m = : , ; , , , 8 ! w c c , w Z c : + : w u : Z M ! ` %.) ",
"f.OX,X2X7X>XXX].m.U.F.q.e.#...R w.R q.O.c C m r M c v c S M w n N Z r r e e > > t ! w ! c *.G o.j.i ",
"W.<X%X7X8X>X>X$X#XF.e.m.e./ / ..b.O.O.b.G C c r M n S S I G v I c n ` V c M & M Z , ' ` o.o.n.n.l.] ",
"].S.D.`.2XF.$X4X#XF.#.G e...` D m.m.O.....C b G C Q I ..L L ..I C ` V C Z w t M ! Z m Z X.&.l.l.l.j.",
",.`.u.w.t.s.}.P.U.m.+.S S } #.` ..m.+.S m ..+...I O.w.w.O.I } I ..` N ` G v M ! / | / m Z m #.l.z.j.",
"r.d.A.t.q. .q.L.+.M.+.q.^ #.^ ^ G R G S A +.O.P T Q m.u.e.T S ..G ..G X...Z G Z ../ X.! X.M %.G.x.j.",
"t.h.Q.9.P.i.| &.| &.i...q.q. . ...m Z , M +.q.e.0.u.A.u.O.L ..c / G G G / +.n / / X.` v ( ` *.*Xx.j.",
"f.!.&X_.}.j +.| | &.&.{.{.K.h.9.} , h j &.L.S q.e.T e.m.I l./ w S c G S +.n / *.` H.*.Z r %.j.l.x.x.",
"T.|. X2XK.^ +.| H.p.K.=X_._.h.}.a.| j - *.Y.^ S O.+.e.b.e.*...r , X.| / *.G +.' X.I.) ! u t ` ) k.z.",
"oX-X|.:X_.s.j &.X.L.}.3X+X_.T.}._.p.h ^ p.X., , Z / h / ` Z ' o.Z X.( ^ | ! *.X.n.X.X.w w t ) ' z.j.",
"-X1X:X_.[.+.+.+.L.p.=X5X}._.`.`.t. .} ^ | ! @ % : t , ~ M @ ; Z ^ *.$.| w M ^ ` u w ' u ! s ~ { j.] ",
";X1X/.!.Q._.u. .a.m._.#XXX%XXX'.P.9.j | ( < % . > & > : < : ; a % ^ ! < ( : ( a > t > / ! s ~ ! J.z.",
"(.(.).].`.S.w.r.w.A.F.`.`._.h.Q.h.L } } ( s % . * > ~ ! t > < ! ! % % > % 9 ! ~ a ' ' ' w < ' X.l.l.",
"(.4.)..XC.Z.r.g.A.F.g.u.S.S.D.r.u.O. .} ^ a > & % % % < ~ < : : % > * * : > & { p { ! e %.( X.' k.j.",
"8.6.4.E.N.Z.y.2.B.r.g.B.w.r.,.w.O.T S S t ( > & * a > e [ & < % % * % > o o % % & t ~ a j.' *.j._ ] ",
"8.R.E.8.V.N.N.N.b.N.N.E Q 0.@.W I C G S Z / 9 > : : t > t : % : o > % * * * & & 3 * a ~ ( ( =.=._ d ",
"8.6.c.E.N.N.N.P E P b.Q R R W R T G G n Z V w = @ X w : a : > : % : @ % p & 3 & $ * a < a [ $.[ { d ",
"6.8.8.V.c.<.2.,.E E Q E Q R W G L G G M m w r ; > & & t * : : : 9 & & s $ p $ $ * . d < ( [ $.[ { d ",
"6.8.8.7.2.N.,.,.Q 0.@.R L L I D ; n h , , : : # : & o & > t a > & 9 > % 9 & 3 3 % $ * > [ ~ ^ [ { { ",
"-.5.5.<.7.N.E E Y I Q D A A c h x m v v , , 8 # : 8 * * & & : & & & 9 * O 9 & 9 * > & a a [ ( ( _ d ",
"-.7.>.1.N.,.E E Q T O.L G G C l , w w , 8 : 8 & @ > X % & 9 & * & t & * 9 * o * $ 9 < : < a ~ ( d q ",
";.:.:.2.,.E w.K x L I A v v m h v , t , w : : 8 : & : o % % & 9 9 & * & * 2 * 9 & % t : t w ( ! s q ",
"J -.:.:.2.,.I P Q A A A A v w w , , , , # = @ & 9 o % & % % % % 9 9 2 * o & % $ & : > > > _ u ! 0 3 ",
"J :.<.T E P x E R I x n ..v m : , , : - # = & @ & O $ * $ $ o $ & 2 * # & * % t & > 9 u t 9 ) u 9 0 ",
"H U k :.K E D D D A G h C v w , = : = @ : % o % O * $ $ $ o 2 $ 2 & * 2 & # * & > > & t ! u 0 ) 8 9 ",
"k k ,.H E z R R D A D h v w , ; = : = # # # % o $ $ $ $ $ $ O & 2 # 9 2 & : * * > 9 w t u u Z u q u ",
"x U H Y x E P P P D l n n ; , ; w + # 8 # @ % # % O 3   3 $ 2 $ # 0 # & : & 9 8 : : u u 0 u u 9 u s ",
"H K K x P z K P A A n m v ; w 8 # 8 : # & & O O $ 2 o 2 $ & 2 3 # & 2 + 2 8 # & : 8 8 t t 0 8 0 0 i ",
"g K K x x l x E l x A l , c ; ; w # # = & # o O $ o O & 2 o $ 3 2 2 & 8 & & 9 + 9 t 0 t 8 9 0 0 i i ",
"x x x l x l z P A l D l 6 N : ; 8 : & + X + O # o O & $ o 3 $ & 2 O 2 2 & 8 8 8 : t w 0 # 8 9 4 y y ",
"H g x l l 5 z b l z b D w ; r 8 = 0 & O # O   & O & & % 2 O 2 O 1 $ 1 & # & : 9 8 w : 0 0 0 0 8 7 7 ",
"g x l l l l f l 5 b z b 6 r 6 w = # # 1 o o # O o O O O O 1 O 1 $ 2 # O # & = 8 8 w e 8 0 w 8 1 8 7 ",
"g b l l ; l 5 z 6 l 6 w 6 6 = 8 4 # + # O X O O O O O O O 1 & 1 O 2 2 O # & # 8 0 w w 8 u 0 8 1 4 7 "
};
