/* XPM */
static char *_d58d10b8a3b482af93752b0b145a43cvwljWHMeRwbuajR4[] = {
/* columns rows colors chars-per-pixel */
"50 50 242 2 ",
"   c #010102",
".  c #01030B",
"X  c #06080E",
"o  c #09090D",
"O  c #010413",
"+  c #040A14",
"@  c #0A0D14",
"#  c #00031A",
"$  c #040B1B",
"%  c #0A0F1B",
"&  c #0A1119",
"*  c #0C121D",
"=  c #12141C",
"-  c #15181F",
";  c #020621",
":  c #030C23",
">  c #000B2C",
",  c #0B1524",
"<  c #081427",
"1  c #04122C",
"2  c #0D1A2B",
"3  c #151A24",
"4  c #171B25",
"5  c #141D2C",
"6  c #030F32",
"7  c #031433",
"8  c #061935",
"9  c #0C1B34",
"0  c #091639",
"q  c #0C1D3A",
"w  c #131D32",
"e  c #1C212C",
"r  c #0E2132",
"t  c #1C2433",
"y  c #192637",
"u  c #13243C",
"i  c #1C293C",
"p  c #21252D",
"a  c #212632",
"s  c #232934",
"d  c #242D3B",
"f  c #292F3A",
"g  c #2C323C",
"h  c #172A45",
"j  c #1E324B",
"k  c #1C3354",
"l  c #222E43",
"z  c #243244",
"x  c #2C3543",
"c  c #25354D",
"v  c #2C3849",
"b  c #333A45",
"n  c #3A3D42",
"m  c #343D4B",
"M  c #243953",
"N  c #263957",
"B  c #2B3C53",
"V  c #333E58",
"C  c #3C4145",
"Z  c #3B424C",
"A  c #2C415C",
"S  c #334255",
"D  c #3D4653",
"F  c #36465A",
"G  c #2E4567",
"H  c #344964",
"J  c #374B67",
"K  c #3D526B",
"L  c #324B73",
"P  c #3B5274",
"I  c #3E5679",
"U  c #434B55",
"Y  c #444D5B",
"T  c #464B5D",
"R  c #4A525B",
"E  c #54585C",
"W  c #414C6C",
"Q  c #4B5563",
"!  c #485669",
"~  c #555C67",
"^  c #545D6B",
"/  c #445674",
"(  c #455A74",
")  c #485B79",
"_  c #515E73",
"`  c #59626C",
"'  c #4F6175",
"]  c #556273",
"[  c #5B6573",
"{  c #53647D",
"}  c #5C6878",
"|  c #636C7A",
" . c #6A7176",
".. c #67727E",
"X. c #435B84",
"o. c #475F8A",
"O. c #496286",
"+. c #4C658B",
"@. c #546687",
"#. c #5B6B85",
"$. c #536A8B",
"%. c #5B6C8B",
"&. c #5E718A",
"*. c #4A6794",
"=. c #556D93",
"-. c #586E98",
";. c #5C7294",
":. c #59739A",
">. c #6B7686",
",. c #62738B",
"<. c #727A84",
"1. c #737D8B",
"2. c #647691",
"3. c #677797",
"4. c #6B7B94",
"5. c #637A9C",
"6. c #6C7C9C",
"7. c #717F9B",
"8. c #5D77A3",
"9. c #647CA3",
"0. c #687CA1",
"q. c #717EA0",
"w. c #7A828C",
"e. c #6D809E",
"r. c #7C8594",
"t. c #7B8897",
"y. c #73839C",
"u. c #6B82A3",
"i. c #6B84AD",
"p. c #7385A4",
"a. c #7786A5",
"s. c #7589A4",
"d. c #7B8BA4",
"f. c #758AAC",
"g. c #7B8CAB",
"h. c #7D92AC",
"j. c #778CB3",
"k. c #7C93B5",
"l. c #7A94BB",
"z. c #82898F",
"x. c #828995",
"c. c #838D9D",
"v. c #86919A",
"b. c #8A939E",
"n. c #828DA6",
"m. c #8A95A4",
"M. c #8493AB",
"N. c #8C9AAE",
"B. c #939BAB",
"V. c #959CA8",
"C. c #8294B3",
"Z. c #8A96B4",
"A. c #869AB5",
"S. c #8C9BB4",
"D. c #8496B8",
"F. c #859BBB",
"G. c #8C9EBC",
"H. c #939EB1",
"J. c #959DB7",
"K. c #9CA3AD",
"L. c #8EA1BD",
"P. c #95A3B5",
"I. c #9CA5B4",
"U. c #93A4BB",
"Y. c #9AA6BA",
"T. c #9DAAB9",
"R. c #A2AAB6",
"E. c #A6AAB5",
"W. c #ACAFB6",
"Q. c #A5ADBB",
"!. c #A6B0B9",
"~. c #ABB3BD",
"^. c #8C9DC2",
"/. c #8CA2C4",
"(. c #8EA5CA",
"). c #92A6C4",
"_. c #9CABC3",
"`. c #97AAC9",
"'. c #97B0CE",
"]. c #9CAED2",
"[. c #9CB1D1",
"{. c #A1ADC1",
"}. c #A5B3C6",
"|. c #AAB4C3",
" X c #A5B4CB",
".X c #ABB6CC",
"XX c #ADBAC8",
"oX c #B4BBC5",
"OX c #B6BAC4",
"+X c #B3BDCC",
"@X c #BABECA",
"#X c #AEBCD3",
"$X c #A6B8D8",
"%X c #B3BED1",
"&X c #B7C2CB",
"*X c #BBC3CD",
"=X c #B5C2D5",
"-X c #BCC5D3",
";X c #B3C7DD",
":X c #B9C5D8",
">X c #BDC6DA",
",X c #BDCAD9",
"<X c #BDCDE6",
"1X c #BDD2EF",
"2X c #C3C7CD",
"3X c #C2C6D3",
"4X c #C3CAD4",
"5X c #C9CCD6",
"6X c #C4CCDB",
"7X c #C9CDDA",
"8X c #C6D2DD",
"9X c #CDD4D8",
"0X c #CCD3DC",
"qX c #D1D5DB",
"wX c #D4D9DB",
"eX c #D6DADB",
"rX c #C3CFE6",
"tX c #CBD5E2",
"yX c #CAD6E6",
"uX c #D4D7E3",
"iX c #D4DAE4",
"pX c #DADDE4",
"aX c #D4DCEB",
"sX c #DADEE9",
"dX c #D2DDF3",
"fX c #D8E2E7",
"gX c #DDE1E5",
"hX c #DDE2EB",
"jX c #DCE7F6",
"kX c #E0E3E6",
"lX c #E2E5EB",
"zX c #E5E9EC",
"xX c #EAEDED",
"cX c #E3E5F1",
"vX c #E4EAF3",
"bX c #EAEDF3",
"nX c #E4EDF9",
"mX c #ECF2F3",
"MX c #ECF4FB",
"NX c #F1F4F5",
"BX c #F5F9FB",
"VX c #F4FCFE",
/* pixels */
"                = - p n Z E U ` ` ~ E g % < y r ) ] _ O .   . * r h j u u u i d i & & +   s E E <.` ",
"              X = p p Z D | [ ` ] [ E 5X|.v 2 A ( ;.y.9 O .   5 M h h h h i u y y t & * X ` U <.g X ",
"              . = p g b ` ` <.` [ R K.2X6XfX>.! { 3.d.v O O . s S A M j j j h i i r < * e ` C       ",
"            o - @ 4 g Z E w.} | ~ z.eX2X-XtX;X{ @.f.d.! O . O z ' L H M A M S c d i y $ =   .       ",
"            @ = e e g U ` w...[ ~ 2X5X5X*XtXM.,.p.y.a.4.O O $ z 2.( K B ( G M K S j i 4 .           ",
"        o o X X - g s U ` } v.U I.2X3X7X4X8X,.4.a.3.n.Z.O O 2 F e.P O.) G K J I A c i e .           ",
"        o o = 4 3 * x C ` [ ` >.~.*X*XOX*X,X,.e.C.7.a. Xw # w ] &.) $.$.H I I G A c j 2 . .         ",
"          @ - p t C d t C ` [ I.~.~.2X3XfXXX{ p.g.Z.{..XT # z 4.{ $.e.$.+.X.=.L A M v , +           ",
"        o = e p g b D E m 2 >.v.~.oX3X6XjXI.2.6.g.n.Y.}.#.# l 7.%.;.p.=.=.:.L I P J F # O   .       ",
"      X @ = e s g C Y Y Q >.Q D w.~.7X6XnX1.#.7.d.N.N.N.m.# W 3.%.M.s.u.e.+.G O.I K J : + +         ",
"    X o @ - a f g D D Y R ..<.<.E ^ Q.aXyX' ) #.y.d.}.Y.J.: ] y.p.G.u.p.u.9.=.I @.@.B : $ % .       ",
"      o - e e g x b Y Y ] | >.,...B.<.c.!.! @.d. XY.T.c.Q.y y.d.Z.Y.F.f.:.u.5.) O.;.h 2 : $ O       ",
"      o & 4 f g x m S ^ ! } 1.[ b.V.b.*X>.t.G.Y.Y.N.P.|.B.v J.a. XU.).g.3.k.j.-.L $.8 9 2 $ O .     ",
"  . . o - 4 a x v m Y [ ] >.[ r.N.t.K.!.n.7.M.}.T.P.t.B.7Xt.H.U.#XG._.A.g.k.f.+.K K q 9 5 : O O     ",
".   . @ 4 e t a b m ! ] ^ #...m.t.v.K.&X,.2.d.Y.{.H.oX&X5X=X4.}.=X_.L.S.h.u.6.;.+.M u 9 1 $ $ + X   ",
"    X % = 3 4 d v T [ } ] ] >.r.w.I.K.!.,.y.1.y.Q.R.6XVXVXnX,.y.s.h.L.).s.i.k.5.5.h q 2 , < $ .     ",
"    @ @ + 3 e t m ^ ] ] [ #.n.>.H.b.~.m.>.M.I.K.2XNXNXBXMXVXM.n.i.:.u.+.k.l.:.e.;.r q 2 r * . .     ",
".     . % 4 4 d D T Q ^ ~ 1.1.r.m.P.R.b.N.Y.3XVXxXxXxXBXVXVXU.q.u.*.*.l./.'.f.s.P 1 y h $ X . .     ",
"      o = = 4 b Y D Q ~ | #.>.B.v.b.v.!.rXnXjXbXxXxXmXxXbXVX#Xg.i.8.:.l.(.(.l.L.A.e.B O & X X X     ",
"      . % = e Z D Q Q ~ .. .1.~ z.oXfXgXaXaXaXbXzXNXxXkXzXVXrXq.i.8.u.i.(.(./.k.A.U.U.d.F & X       ",
"      o = = e b D U R ~ C ~ b.pXmXzXmX9X,XtXiXcXkXlXbXbXlXMXjX;.:.:.*.l.(.`.).G.).h.k.h...K S 3 .   ",
"      o X 4 d Z n e C r.gXvXNXlXxXfXxXeX,XfXhXbXxXkXNXcXlXMXVX%.+.+.:.u.l.k.G.).L.g.s.e.e.F H S i a ",
"      o * 5 4 r & oXVXVXmXgXgXgXgXxXmXfXfXfXpXzXlXlXNXxXzXVXVXt.=.*.:.8./.L.F.L.`.h.h.s.{ J A H ! ! ",
"    .   + * 5 y v nXfXhXzXgXgXlXeXzXzXxX9XfXhXvXkXpXxXNXxXVXVX{.:.*.*.l.l.`.(.^.A.h.h.h.( K h.h.{ ( ",
"      O % < u S S 6XeXhXhXgXpXgXpXkXlXzX5XuXsXsXkXpXkXzXNXBXVX-X*.*.*.l.l.(.^.(.k.6.g.5.'.T.N.y.' K ",
"      + : z } #.' }.8XfXgXgXwXgXpXkXzXzX3X3XuXcXsXlXxXNXNXBXBXuXX.*.8.8.-.l.^.^.g.2.,.jX=XP.M.J.,.K ",
"    + O j ' ( #.} T.&XjXhXiX9XhXuXpXlXcXpXqXpXcXcXbXkXxXNXBXMXMX-.*.*.o.8.l.].^.H 0 : 1 ] ;X{.%Xy.;.",
"    . % c K ( { &.t.,XfXvXwX9XfXsXsXlXlXlXpXsXpXpXkXpXlXmXNXbXVXj.*.9.=.j.-.h 6 0 7 1 1 $ O O < F &.",
"    & 2 u H K ( { ,.8XfXqXpX7X0XuXsXcXkXkXeXgXpXsXsXpXlXxXNXbXVXG.;.u.J 6 > > 6 6 0 6 : : O O O . . ",
"  @ , < 8 h k ( ( { yX,XhXsX9X5XsXuXlXxXkXeXkXzXlXhXbXbXxXbXNXVX#XN : # ; 6 > 6 > > > ; : $ O .   . ",
"  . + < 8 h k A B ! aX,XtXuX2XlXcXuXpXkXeXqXpXsXcXsXlXzXcXbXsXuX%XJ.q.V G N q 6 > ; ; # O . o       ",
"o   X $ < q h h M F =X&X5X@XlXsXpX0XpXkXeXqXqXtXtXaXnXlX3X3X3X7X%XZ.#Xn.q.@.7.3.%.J V d O   .       ",
"    o O $ < w u z v B.-XI.qXgXpXpX7XlXeXeXeX,XfXyX,X&XN.|.3X%XrX3X%XXX>Xn.q.q.0.$./ / d .           ",
"      @ = 3 w d c m t.[ |.3X9X3X9XeX2XeXqXqXfX,XU.S.N.N..X-X%X3XtX7XrX%XG.G.;Xq.;./ @.2 .           ",
"    X X @ , t z m ! n.R.jXqXpXhXzXgX9XhXeXhXT.N.N.A.N.T.|.6X8X8X6XuXrXrX^.^.F.u.`.Z.@.:             ",
"      . % , w d v D m.R.9XcXpXlXeXkXeXgXkXVXQ.U.L._.L. X,X,X-XtX=X%X{.>X$X^.k.].].`.rX# .   o       ",
"      X @ , 5 d d ^ |.I.|.5XbXpXgXpXeXgXhXnX_.y.&.C.).|.+X7XaXyXyX_.d.J.$X^./.'.D.].n.$ .           ",
"        @ 3 5 5 z r.Q.E.W.W.5XhXlXwXgXgXlXvX.XG.M.L. X%X7X0X0XhX,XZ.g.G.g./.G.D.j.`._ ; @           ",
"      X @ + , 4 f I.oXoXW.W.@X9XlXeXeXpXnXsX%XZ.`.). X%X-X0X0X0X:X2.C.].G.;X/.;.j.].c # X           ",
"        . @ 3 a t 7X@XR.E.@XoX*X9XqXzXxXcXaX6Xn.P.#XXX6X@X-X8XfX<XC.p.f.`.[./.l.$Xq.1 $ +           ",
"        . @ 3 e b V.Q.W.oXOX3XOX2X~.xXxXkXsX7Xt._.#XXX+X6X0X0XdXrX3.$.j.'.F.).F.j.@.# % . .         ",
"          X % p R 1.E.oX|.@X@X3X2XK.9XbXsXsXrXr.I.XX-X-X4X7X6XyX#X;.-.9.l.'.^.C.@.W $ O O           ",
"        . o % = <.K.z.@X-X@X3X2X~.V.@X5XbXsXtXn.:X=X=X-X6X-XrXyX;X=.o.:.k.k./.P q.l # O .           ",
"          o % = @XE.z.I.4X2X3X@XE.V.W.oX@XsXaXr.&X}.+X,X6X-X>X#X).q.o.:.9.5.X.@.q.; O o             ",
"            O 4 5X@XK.<.3X@X|.*XB.R.V.~.V.+XdXH.N. X&X&X}.}.Y.rX#X$X*.8.:.P =.;./ # .               ",
"        .   . = @ U b.R.x.|.Q.-Xv.K.E.b.V.I..X}.h.}.P.L.T.=XdX$X3.k.X.8.8.X.-.%.c # .               ",
"            . . * e a Z w.T.~.*Xc.R.|.r.V.Q._.d.4.L. X;X#X4.c 1 h 0.9.X.L *.) X.1 O @               ",
"              o = 3 t f f Q XX|.r.R.E.x.B.J._.s.&.<Xs.S 1 1 q q h 0.G G L -./ W # .           .     ",
"                @ = 5 e a t >.|.r.m.c.x.I.V.{.J.V < > 0 8 0 q 7 h 1X(.k k $.k K .                   ",
"            .   o O + r e e y m z ^ x.c.J.n.Z.Z.h 9 1 7 7 7 7 7 0 ;Xf.].+.G M 9 .                   "
};
