/* XPM */
static char *cd17791b4a5243edd8de0dafd5d62b900EJZXzWPZrMZVj0I[] = {
/* columns rows colors chars-per-pixel */
"25 25 114 2 ",
"   c #0D1F2F",
".  c #0B212C",
"X  c #0E2130",
"o  c #122433",
"O  c #172937",
"+  c #1A2B3A",
"@  c #1F303E",
"#  c #243542",
"$  c #263B43",
"%  c #283846",
"&  c #2D3D4A",
"*  c #2D4149",
"=  c #315546",
"-  c #374653",
";  c #3A4A56",
":  c #3E4D59",
">  c #414F5B",
",  c #44535E",
"<  c #465460",
"1  c #495762",
"2  c #4D5A66",
"3  c #515E69",
"4  c #55636C",
"5  c #58656F",
"6  c #5A6671",
"7  c #5D6973",
"8  c #616D77",
"9  c #626E78",
"0  c #6A757F",
"q  c #F50F0F",
"w  c #F51212",
"e  c #F61B1B",
"r  c #F62323",
"t  c #F62A2A",
"y  c #F63434",
"u  c #F73B3B",
"i  c #F74444",
"p  c #F74D4D",
"a  c #F85555",
"s  c #F85D5D",
"d  c #F96262",
"f  c #F86B6B",
"g  c #F97B7B",
"h  c #5BFF2E",
"j  c #5EFF32",
"k  c #61FF35",
"l  c #65FF3B",
"z  c #68FF3E",
"x  c #74957E",
"c  c #5DD444",
"v  c #6BFF43",
"b  c #6FFF48",
"n  c #72FE4C",
"m  c #76FF51",
"M  c #79FF55",
"N  c #7EFF5B",
"B  c #81FF5E",
"V  c #80CE73",
"C  c #83E46D",
"Z  c #84FF62",
"A  c #8CFF6D",
"S  c #8AE476",
"D  c #8FFF71",
"F  c #92FF74",
"G  c #97FF7A",
"H  c #99FF7D",
"J  c #6E7982",
"K  c #748C82",
"L  c #77818A",
"P  c #7F8891",
"I  c #818B92",
"U  c #8C949C",
"Y  c #90989F",
"T  c #96B79A",
"R  c #939CA2",
"E  c #99A1A6",
"W  c #9BA2A9",
"Q  c #A6ACB1",
"!  c #B0B6BB",
"~  c #FA8686",
"^  c #FB9393",
"/  c #FB9C9C",
"(  c #FBA4A4",
")  c #FBAEAE",
"_  c #9BD393",
"`  c #A4FE8C",
"'  c #AAFF93",
"]  c #A4CFA0",
"[  c #AAC2AE",
"{  c #BACFBD",
"}  c #B6FCA3",
"|  c #BAFEA8",
" . c #C3FDB3",
".. c #B8BEC2",
"X. c #BFC3C8",
"o. c #D0DCD3",
"O. c #D7DADC",
"+. c #DADCDE",
"@. c #F1C3C4",
"#. c #FDC6C6",
"$. c #FDCCCC",
"%. c #FDD3D3",
"&. c #FDDCDC",
"*. c #D1FAC7",
"=. c #DEE0E2",
"-. c #E1E3E5",
";. c #EDEEEF",
":. c #FEE4E4",
">. c #FEE9E9",
",. c #E5F6E2",
"<. c #F3F4F5",
"1. c #FCF4F4",
"2. c #F7F7F8",
"3. c #FFFEFE",
/* pixels */
"q q q q q q q q q q w q q q q q q q q q q q q q q ",
"q q w e r t t r t e e t r r r r r t t t t t y t w ",
"w q t ) #.%.%.%.#.#.#.@.$.$.$.$.$.$.%.&.&.&.$.s e ",
"w w t $.3.3.3.3.3.3.3.1 Q +.Q Q -.2.3.3.3.3.>.d e ",
"w w t #.3.3.3.3.3.3.<.@ # o o : < P 3.3.3.3.>.s e ",
"w q t #.3.3.3.3.3.3.-.O & + o 2 J ;.3.3.3.3.>.s w ",
"w w r #.3.3.3.3.3.3.J X o O o # 7 3.3.3.3.3.>.s e ",
"w w t #.3.3.3.3.3.3.3   & $ * J O O.3.3.3.3.>.a e ",
"w q t $.3.3.3.3.3.3.L 6 V c m ,.X 1 3.3.3.3.>.a e ",
"w q y %.3.3.3.3.3.3.2 : F j A F 4 X ;.3.3.3.>.s w ",
"q q y %.3.3.3.3.O.I , o.G j D D C . 7 3.3.3.>.s e ",
"q q y %.3.3.3.;.P % 2  .A n Z D ` = X ;.3.3.>.a e ",
"w q y %.3.3.3.Q 3 o { N b v j k M ] . Y 3.3.&.i w ",
"q q y &.3.3.2.; < x v k n j k v v ' _ - +.3.%.u e ",
"w q u &.3.3.2.9 K l h j l h l v M M v ; 1 3.%.y e ",
"q q u :.3.3.2.2 S l h k j l k m m l m R # 2.%.u w ",
"w q u &.3.3.=.+ [ z k k k z H n l v ` ..% 1.&.i e ",
"q q i :.3.3.W + T k v H v B ' H k B H E 4 3.:.p w ",
"w q i :.3.3.Y % ! } N l v b H } F | *.4 X.3.:.a e ",
"q q p :.3.3.! 5 > @ - > I E 9 5 0 3 : 8 3.3.>.s e ",
"q q p >.3.3.3.3.-.U 0 8 I 8 : 2 E 6 & Q 3.3.>.d e ",
"q q a >.3.3.3.1.3.1.1.3.1.3.1.1.1.1.>.1.1.>.&.s e ",
"w w s ) ) ) ) ) ) ) ( / / / / / / / ^ ^ ~ g f y w ",
"w w r t t t t t t t r r e r r r r r r r r t e e q ",
"w w e e e e e r e e e r r e e r e r e r r r t t r "
};
