/* XPM */
static char *d78f910e0e7f480ff8de38cdc17b9a02VFQQwQ7ti0FLmXP0[] = {
/* columns rows colors chars-per-pixel */
"50 50 63 1 ",
"  c black",
". c gray2",
"X c #0B0B0B",
"o c gray5",
"O c #161616",
"+ c gray10",
"@ c gray11",
"# c gray13",
"$ c #272727",
"% c #2A2A2A",
"& c #2F2F2F",
"* c gray20",
"= c #373737",
"- c #3A3A3A",
"; c gray24",
": c #414141",
"> c gray27",
", c gray29",
"< c gray31",
"1 c #505050",
"2 c #555555",
"3 c #5A5A5A",
"4 c gray36",
"5 c gray39",
"6 c gray40",
"7 c #686868",
"8 c #6C6C6C",
"9 c gray44",
"0 c #767676",
"q c gray48",
"w c gray50",
"e c gray51",
"r c gray52",
"t c #888888",
"y c #8E8E8E",
"u c #939393",
"i c gray58",
"p c #989898",
"a c gray61",
"s c gray64",
"d c #A5A5A5",
"f c #AAAAAA",
"g c #ACACAC",
"h c #B2B2B2",
"j c #B6B6B6",
"k c gray73",
"l c #BCBCBC",
"z c #C3C3C3",
"x c #C5C5C5",
"c c #CBCBCB",
"v c #CECECE",
"b c #D0D0D0",
"n c #D5D5D5",
"m c gray86",
"M c #DFDFDF",
"N c gray89",
"B c #E4E4E4",
"V c #E9E9E9",
"C c gray93",
"Z c gray95",
"A c #F4F4F4",
"S c #FBFBFB",
"D c #FDFDFD",
/* pixels */
"                -54ykgdiiuyuq897&@$%              ",
"              2kbBVnbxclkhfitsq97<<,#o            ",
"             %ZDDCVCAZmnzkjfudeq2<;==$X           ",
"             =ZSDSSABnzljfsueq8652--$$%           ",
"             #MZDSCBvcxhxgdyw064<:-$@$*           ",
"             =mSCSZCZCmbzlgsyw83:=%#$&+           ",
"             @6nCSSAABbkjsyw941;=%@#X             ",
"               ,jxSDZmcjdur851;=&$##              ",
"                4lCDCMckfpr043:-%@%X              ",
"                3lSDZmcjfii96<:=*@%X              ",
"                >lSDZmckpap861>=&+%.              ",
"                >kDDZMvkfpt0522=&@%.              ",
"                ,lSABnzgstq621<%%@%X              ",
"                3allgpuw065<;-$@@@#.              ",
"                @cZMAZmckfpt053<&$#               ",
"                tBDDSMvkfur051,;&#&X              ",
"                0bDDZnvvsieq61:-%@%.              ",
"                6lSDZbnndpr961>**@%X              ",
"                7xSDZMvlfpr044;;%o%X              ",
"                9jDDZbMhfir961;;&+%X              ",
"                8cSDCnmjfure5<:-%@%.              ",
"                7cDDZmzcfpt05<,-*@%               ",
"                8jSDCmxjsyr84<;&&@%.              ",
"                $0hksptw953>-*#+XoX               ",
"                7zVVVNkxhdir061>&#&               ",
"                9cDDABMkhpt082>-*+&.              ",
"                8zSDZncxsit88<:-=o%.              ",
"                7zDZZMcxdpr05<,-#$%.              ",
"                8zSZZnzhgieq51<=%@$               ",
"                8xSDZnBjgpe051;;&+%.              ",
"                8zDZZCxkfut06<>-&@%.              ",
"                8zDAZmxxjut943;-&@%.              ",
"                8xSDZMmkfpeq71>=*@&               ",
"                $dVVmnzhuiw83>>*$@%               ",
"                3vlxkauw493>;=#+@#O               ",
"                0nZCSVncjaty962>=#&               ",
"                6zDDCBvjlpte52>==@&               ",
"                7zSDBVvglprq5<>-%@%               ",
"                7zSDAmckditq33>-%@%               ",
"                6zDDZmcgkpr861>-%@%.              ",
"                8zADCBzxjur96,,:%@%.              ",
"                6lCDMAvjfpt05<,=&@%X              ",
"               3ccSDCMcjsse95,:=&&#$              ",
"             =8mZSDSABvzgsyw93<;=%@#%.            ",
"            -zMSZDAVCCmnxkhsyw72:=%#$$            ",
"            >mNZSSCNvczkjgspr075<:=$@%#.          ",
"            odZSDSSABmzlhfsirw7682,;$$%.          ",
"             =vSDCVCACmbzxhfpurw8<<:&#+           ",
"              *fvNVnnxczjkfpirw961:-;%            ",
"                -54yjgsuiyyyq0972:>1=             "
};
