/* XPM */
static char *bbc78cc173204908c75994d87f9c9992LKsNOxD6xLZCj134[] = {
/* columns rows colors chars-per-pixel */
"50 50 256 2 ",
"   c #2B1E19",
".  c #31381D",
"X  c #06083B",
"o  c #031839",
"O  c #161133",
"+  c #16193A",
"@  c #2D1437",
"#  c #182B2A",
"$  c #1A362F",
"%  c #02253B",
"&  c #172835",
"*  c #063237",
"=  c #372928",
"-  c #273929",
";  c #363427",
":  c #2E2835",
">  c #293B34",
",  c #373835",
"<  c #4C0E12",
"1  c #6E1113",
"2  c #523119",
"3  c #703315",
"4  c #511335",
"5  c #6C1230",
"6  c #4E312E",
"7  c #722F2A",
"8  c #3A481C",
"9  c #257119",
"0  c #0C4A35",
"q  c #304D2F",
"w  c #394928",
"e  c #036E38",
"r  c #386530",
"t  c #554819",
"y  c #515219",
"u  c #6F4F14",
"i  c #556C1A",
"p  c #736A0E",
"a  c #484524",
"s  c #4B4E32",
"d  c #6D4B2F",
"f  c #4F6D28",
"g  c #70722D",
"h  c #060548",
"j  c #170A45",
"k  c #031645",
"l  c #161745",
"z  c #070E5A",
"x  c #25044A",
"c  c #310E4C",
"v  c #052745",
"b  c #162746",
"n  c #023847",
"m  c #1A344D",
"M  c #032A55",
"N  c #043759",
"B  c #252A42",
"V  c #333348",
"C  c #0F0669",
"Z  c #251364",
"A  c #0D3669",
"S  c #322D65",
"D  c #4C0E4E",
"F  c #670D49",
"G  c #4E3250",
"H  c #6F304C",
"J  c #651A75",
"K  c #483569",
"L  c #11514D",
"P  c #03465C",
"I  c #2C4C4D",
"U  c #0B6952",
"Y  c #2C6C4E",
"T  c #064667",
"R  c #035865",
"E  c #13526D",
"W  c #31566C",
"Q  c #0A6D6E",
"!  c #007978",
"~  c #2D6B6D",
"^  c #494F4A",
"/  c #764E51",
"(  c #496A52",
")  c #4D566F",
"_  c #4C6B77",
"`  c #6D6274",
"'  c #8C070F",
"]  c #AF1010",
"[  c #912D0E",
"{  c #873809",
"}  c #AF3107",
"|  c #93102A",
" . c #AF042F",
".. c #B50033",
"X. c #893229",
"o. c #B12F30",
"O. c #D40316",
"+. c #ED0618",
"@. c #FB0416",
"#. c #CA310C",
"$. c #F32E12",
"%. c #C90029",
"&. c #D70125",
"*. c #CE0734",
"=. c #F70A2F",
"-. c #D32F2E",
";. c #F32D2F",
":. c #8D4F0F",
">. c #995706",
",. c #AC5005",
"<. c #BA5501",
"1. c #906E0C",
"2. c #B07009",
"3. c #8D4F2E",
"4. c #B0512B",
"5. c #947127",
"6. c #C85605",
"7. c #D14E12",
"8. c #FC5803",
"9. c #F5500E",
"0. c #C76601",
"q. c #D86801",
"w. c #D37505",
"e. c #F37004",
"r. c #D54E2A",
"t. c #ED4B2F",
"y. c #F67631",
"u. c #92064C",
"i. c #AA0049",
"p. c #B50249",
"a. c #AD0A52",
"s. c #882E4E",
"d. c #B32B54",
"f. c #AA0466",
"g. c #CC3050",
"h. c #E2234F",
"j. c #A86156",
"k. c #D9604C",
"l. c #11871B",
"z. c #6AA01D",
"x. c #778C30",
"c. c #71E836",
"v. c #088754",
"b. c #2EA159",
"n. c #078F6F",
"m. c #35B079",
"M. c #679755",
"N. c #4AAF52",
"B. c #51B474",
"V. c #2FD54E",
"C. c #27DE5B",
"Z. c #0ECF73",
"A. c #2FCF6D",
"S. c #2CE97B",
"D. c #4DCE49",
"F. c #48C970",
"G. c #69D762",
"H. c #58EA6D",
"J. c #90910F",
"K. c #BA8601",
"L. c #B0950D",
"P. c #95A21C",
"I. c #B0AF09",
"U. c #AFA734",
"Y. c #C98901",
"T. c #D58C02",
"R. c #CA9502",
"E. c #D69802",
"W. c #E59701",
"Q. c #F29104",
"!. c #D3B002",
"~. c #E7A701",
"^. c #FBA901",
"/. c #E8B702",
"(. c #F9B804",
"). c #F5B117",
"_. c #D29C27",
"`. c #FC932E",
"'. c #F6B02C",
"]. c #92D000",
"[. c #AEC604",
"{. c #A3E726",
"}. c #C9CF02",
"|. c #F2C90A",
" X c #FCD504",
".X c #D6FD18",
"XX c #EFF30E",
"oX c #F7FD19",
"OX c #FEC72A",
"+X c #FECD2E",
"@X c #DFF925",
"#X c #95A35C",
"$X c #CBB04F",
"%X c #A2E055",
"&X c #031B8F",
"*X c #0A3098",
"=X c #57338B",
"-X c #084C8B",
";X c #06718C",
":X c #34718E",
">X c #2459A1",
",X c #60538C",
"<X c #4F7087",
"1X c #0875C4",
"2X c #8D6A93",
"3X c #038C90",
"4X c #02AE8C",
"5X c #30B689",
"6X c #078FAA",
"7X c #2E9EB0",
"8X c #02B3AC",
"9X c #6D8C8C",
"0X c #5D9CA4",
"qX c #15D090",
"wX c #2BCD92",
"eX c #19EE94",
"rX c #31E897",
"tX c #07CBAD",
"yX c #0EF1B4",
"uX c #2AE4A8",
"iX c #63DB99",
"pX c #49E787",
"aX c #78D6AD",
"sX c #6DF5B7",
"dX c #27B1D5",
"fX c #6996D1",
"gX c #55B0D8",
"hX c #6DB0D6",
"jX c #56B5E6",
"kX c #6CB7EF",
"lX c #07FAC8",
"zX c #1CEDDF",
"xX c #36D8F7",
"cX c #4DCDD5",
"vX c #57C5D7",
"bX c #73CBD5",
"nX c #51F4D7",
"mX c #68FFCA",
"MX c #51CFED",
"NX c #68CFF2",
"BX c #4AF6F0",
"VX c #5AFBFF",
"CX c #6EEEF3",
"ZX c #6AFFFE",
"AX c #A4A497",
"SX c #D1A9A9",
"DX c #8DF095",
"FX c #B0FC8D",
"GX c #8ED9A8",
"HX c #95E1A0",
"JX c #C4FF96",
"KX c #8AB5C8",
"LX c #979CE0",
"PX c #8FCDCE",
"IX c #8DEBF5",
"UX c #C6F8C1",
/* pixels */
"8XtX8X5XuXlXt 2 r  .u.u. .' i.i.a.p.a.a.=X=X6XL f }.n.v.v.U = p `.y.;.o.D j X y q.`.$Xz.l.0 J.>.>.# ",
"8X8X8X8XyXlXm., N 2.u.u.]  .i.i.i.a.i.a.J ,X;X;Xz.;Xn.v.U 0 . 7 3.u G : c j h # e.2.P.).r 0 1.>.:.0 ",
"tXzXH.tXyXyXA.q m f 7.u.| u.i.i.i.f.f.f.) yXzX5XE n.! n.L # -.$.I.6 7 V D c j + 2.z.z.z.o.L p q.:.v.",
"lXuXB.tXyXZ.M.i L N ~.u.f. .i.p.p.p.s.B.wXqXyX5X5XA.b.v.- O h.;.}.5.6 : 6 d d o 1 z.].E.<.} 1.9.f e ",
"lXXXtXqXeXf t i z.m 5.E.f. .p.p.p.M.S.wX5X5XyXuXyXV.C.b.k 6 h.h.}.!.6 u u { # # < J.!.Y.T.,.p 8.e e ",
"%X{.S.yXM X a y 9 f q Q.r. .p.s.F.F.A.yXwXwX4XuXuXZ.C.V.o s.h.-.[.[.U.AXAXcXuXaXhXU.W.E.Y.0.y Y e e ",
"XXyXA.Y v $ o X 0 f L 2.^.o.M.A.F.F.C.yXyXwX( qXuXqXC.A.k r.h.-.}.L.9XUXnXnXnXDXkXFXJX_.E.~.t e f e ",
"%X8X8 i s o o X :.P L a Q._.G.%XB.F.V.yXlX6Xg wXqXeXV.S.T ) g.`.XXI <XMXzXBXnXiXhXFXJXDXFX~.2.0 G 7 ",
"R 0 8 i w o o o q.<.q L 2.E.B.N.F.A.V.eXyX-Xc.5XZ.eXS.A.T W s.U.~ E :XjXjXBXnXDXGXFXDXDXFXDXG.. & ;.",
"Y 8 f i 0 o % t 6.6.q.L q T.qXZ.A.H.V.S.;Xn.H.eXm.qXwXY Q I T ( T W <XkXjXcXFXFXhXaXDXDXHXDXsX( & ;.",
"P.8 i y n . # ,.<.<.<.q.L Y.D.C.Z.B.V.N.-Xz.H.yXwXyXtXI U V f 4.;XV <XkXgXvXFXGXbXiXDXaXsXDXsXaX: o.",
"!.8 1.L 0 . & 0.6.<.q.q.q.1.2.C.qXA.V.q -X].rXyXyXqX3XR I A !.j.0XN :XjXjXgXsXaXnXsXaXDXDXaXsXaX: 7 ",
"/.8 i * . $ t q.6.,.w.q.q.W.,.M.Z.A.f - ~ XXrXrXuX5XE R ;XI.I.2XAXu.;XkXhXgXvXnXnXnXvXgXaXGXmXb.D q ",
"^.a O # & % <.0.0.<.q.<.R.~.5.>.D.b.2 L U.XXH.pXrX~ ~ T N.].#XZXZXAX0XjXjXfXPXUXxXgXcXcXvXvXnXe V V ",
"W.1.y : X = 0.0.0.6.q.Y.Y.E.R.> f s 0 M XXXXpXpXiX_ Q n.].].zXVXZXMX7Xd.2X0XxXDXaXdXcXvXvXcX7Xe 6 Q ",
"W.2.k O o >.Q.Q.T.T.R.T.Y.W.W.y V.g V q XX%XH.F.5X_ E ].].G.xXZXCXNX7XE h.g.d.2X%XxXMXcXgXBXQ U ( k.",
"~.^.X O X <.<.w.W.~.T.Y.Y.R.T.L.A.Z.#.5.}.%XF.F._ :XI.[.[.MXxXZXVXIX` m G g.d.a.t.`.,XhXxXBXo -.k.$X",
" X^.O o   6.} <.E.~.R.Y.T.Y.Y.W.Z.A.N.8.|.N.B.m.:Xz.[.].H.MXMXZXBXPX0XY I / d.d.d.y.r.-.h.fXj.9.$.4.",
"I.(.6 X 3 6.0.T.T.E.K.R.R.Y.E.5.m I N._.|.H.N.E f }.[.].MXbXCXVXBXKX9XI ^ E s.d.d.g.`.s.&XLXIXIXSXr.",
"+ XXL.h 6.q.E.Y.T.~.Y.E.Y.Y.2.k : j 6 } %Xg 2.#Xm.y ;   0XbXCXVXCXPX9XW ^ ;X6X2X2X2X:XA f FXPXPXPXPX",
"+ [.XXu 0.R.Y.R.T.E.E.R.W.Y.k + b 6 3.e.,.l I.x.8X3Xw 2 a NXZXZXCXPX9XL ) 6X6X6X<X-XA -X7XjXNXAXKXSX",
"i p @X).!.K.Y.T.T.T.R.Y.T., l l m 7 e.e.2 : d ^ s 3X4Xw 2 ( ZXZXPXKX_ m 6X6X;X;XM z &XC NXNXMXjXSXbX",
"i w J.!.R.L.K.Y.Y.R.R.W.b & & V m 7.e.6.6 a d m ^ I Q 8Xr - BXVXbXKXj.W ! A T N M M &X*XCXkXgXjXhXbX",
"q & t }.R.K.2.T.W.R.~.s N , B b u q.e.7.X.= 6 b I I I I n.Y n.BXhXhX<XT P A R N z z M 7XVXjXfXjXjXfX",
"- % [ oXE.Y.K.R.Q.(.g E w V G H 8.e.e.2.7 d b : s I s I ^ 3.2 j.SXKX7XN T T P z &XC k CXVXfXfXjXNXJ ",
"i 8 w.XXoXR.Y.R.~.Y.b ^ s K S 8.8.9.e.u >.u l @ B ^ I I n.v.d 1 AXMX>XN E A S C C C E ZXkXMXjXkXfXD ",
"9 1.Q.XXoX XE.!.!.k V ^ m T 7.8.8.8.w.s 1.6 b : @ I ^ L U G g ! ' SXdXP A >XE C C h gXNXkXNXfXZ X F ",
"9 2.^. X@X[.J.J.R M b M T s 8.8.8.8.u y a 6 c : l 3.R ~ L 6 3.Q ] 4.dX;XP G ' D j Z IX,X` , O h O 5 ",
"l.w.T.XXoX].0 P R P P P L 0.<.e.8.8.d q w 6 V l : oX.XI I s d H ] s W 6XR < 5 K 2X0Xx 4 6 2 @ h @ c ",
"I.Y.E.|.oXz.0 U R T T P 0.<.2.2.9.&.7 w a 6 5 N %X.XXX(.( 5 X.} } V 0X_ cXfXkXLXIX-XZ C M @ @ h j C ",
" XL.E. XXXr e R R A A 2.w.0.2.] &.&.| s a ; G n.XXoX/.(.).w.^ 4.3.6 < ^ ZXCXLXvXJ x D c l x + - Z O ",
"%X1.T.}..Xe 0 N M N G Q.T.6.%.%.=.&.| q 1 4 5 M.oXXX(././.`.|.o.2 < 6   0XVX>Xc x x D h x x : d Z C ",
"%X1X/ [.F.>X-X* N N q.q.$.&.%.%.=.=.*.q ] 2 4 )..X|.(.~.^.`. X_.2.>.u u @ D F D x Z l B D J / 3.G C ",
"#X6X1Xb.W *X;X* v ,.<.O.@.+.&.%.=.=.=.3 } d s )..X(.(.(.^.Q.+XOX>.>.:.2.,.h D D x c l & b x 7 4.s.C ",
"M.1X5XXXe.7 -XM ,.] p.%.&.@.&. .=.=.=.`.4.1 R.^././.(.).'.+X'.+X>.1.1.>.:.j z F D j z l > c 6 3.o.Z ",
"#X;X.X.XT.W.0.3.=.i.&... .+.@...&.;.=.|.OX_.!.|.@X'.`.'.`.+X).'.1.1.1.>.u 4 h V F h h l l c c 2 4./ ",
"#X.X.X{.5.P.t.=.&.&.O.%... .@.+.$.@.;. X X5.3 } y.XX@X.XoX'.'.+X1.1.>.:.3 6 h B @ k k j j x k q 6 D ",
"%X.X` ) M.~ ^ =.6 O.%.......&.@.@.@.$. X X$ :.} ' u {.oX+X'.|.'.u 2.2 - 3 :.j X B h j j j j G :.o.5 ",
"%X#XS ) ) ` ( -.^ 0 &.%.....+.%.O.O.7.'.L.* 3 [ ' | L f /.OX+X5.t t y w o = 6 v H H S j j 5 7 2.[ F ",
"%X) K K :X` / [ s.n > *.%...@.=.%.&.Q. X7 : y } ' 1 # 2 p ,.'.2 :.p y u u % : b T H s.c 4 5 5 ,.[ 5 ",
"B.=XS S <X<Xs.o.] V L l +.&.=.=.&.&.^.~.4 F ] :.' 2 t p K.[ 5.OX2.u y y y q @ X R A X j x 5 | :.[ 5 ",
"7X1X*X*X*X1X,X} u | b n , @.=.=.+.O. X:.3 5 } { y t t . p < '.+X_.1.p w s t X O P T 5 4 5 @ 4 7 V ~ ",
";X>X*X*X*X>X:.} 3 w | n m } =.;.O.O. X2 [ [ < 3 t t # o p 3 +X+X'.1.:.y a t o X M R G 5 5 D b x c R ",
"Q -X*X*X*Xq { } u : 6 | & 7 ] @. .$.L.3 { 2 * $ 2 2 ;   # _.(.|.|.u p 1.t > o h h R M 5 W ^ 4 x D G ",
"3X3X*X*X> w :.} u ; t 5 O.1 1 ] @.8.s [ 3 2 # # % % $ * % (./.~./.. 8 8 $ % o + X Q ! 4Xn.n.f G ` K ",
"Q Q -XZ - > u #.u 6 = # -.] X.q | } q [ 3 ; % . * * $ v g /.).).OXR.J.$ - o % * R 3X3X4Xn.n.= F y.k.",
"Q Q ! 8 q & 6 - 3 3 2 = } +.r w , 7 - [ 3 - o * $ % % v /./.OX+XOX^.i y & # % P R ! v.n.4X: : ;.-.k.",
"! ! n.$ w 0 w q { [ [ [ p u O.g 2.$.4.r.6.R.q * n v v r  X/./.|.|./.J.y & $ n R U L n.4XU # 4.j.AXj.",
"3X3X! & : : 6 D 6 [ 3 s w } r.O.@.|.y.y.T.Y.w.0 * n v L.|.|.~./.|.!.R.w V 6 U L L U n.n.. b.AXGX#X-.",
"3X;X3X> 6 H 6 6 : : i y , 2 7.[ $.'.`.e.R.R.E.2.# o *  X/./.|.}./.E.W.2., V R 0 L U ! n.b.AX#XGXj.-."
};
