/* XPM */
static char *_90446a9cfe64226af5340bf4162d0f5fUk31CwZaIGubjEI[] = {
/* columns rows colors chars-per-pixel */
"50 50 249 2 ",
"   c #4F290D",
".  c #58370A",
"X  c #542B17",
"o  c #5A3418",
"O  c #633816",
"+  c #6D3D1B",
"@  c #713F1E",
"#  c #7D1432",
"$  c #5D3522",
"%  c #723E24",
"&  c #65410F",
"*  c #6A4517",
"=  c #73481D",
"-  c #7A551D",
";  c #6C4425",
":  c #764223",
">  c #794827",
",  c #7D5627",
"<  c #7F4330",
"1  c #870739",
"2  c #871839",
"3  c #8B253C",
"4  c #902B3F",
"5  c #8A363C",
"6  c #C7283A",
"7  c #824B2D",
"8  c #855A2A",
"9  c #854B32",
"0  c #8A4D34",
"q  c #8B4A3A",
"w  c #904C3E",
"e  c #8C5334",
"r  c #8D5B32",
"t  c #885835",
"y  c #93583C",
"u  c #876129",
"i  c #8B6434",
"p  c #8D6737",
"a  c #956739",
"s  c #957338",
"d  c #9B743C",
"f  c #991145",
"g  c #A51B4F",
"h  c #972B45",
"j  c #8E3240",
"k  c #9A3748",
"l  c #A1364E",
"z  c #AB2755",
"x  c #AD2B57",
"c  c #A73954",
"v  c #B93464",
"b  c #CC2E41",
"n  c #C93545",
"m  c #D53A4A",
"M  c #C03D6E",
"N  c #8D4740",
"B  c #944C43",
"V  c #994749",
"C  c #955343",
"Z  c #995547",
"A  c #9A5B44",
"S  c #9B534B",
"D  c #9C5B4A",
"F  c #A1594D",
"G  c #A44B53",
"H  c #A94856",
"J  c #AB4E5B",
"K  c #AC4D5A",
"L  c #A95857",
"P  c #9C6344",
"I  c #9C7742",
"U  c #A3674A",
"Y  c #A37A48",
"T  c #AA6658",
"R  c #B06B5D",
"E  c #A97754",
"W  c #B74866",
"Q  c #AB5E62",
"!  c #B35363",
"~  c #B55A67",
"^  c #BA5D6C",
"/  c #B6676A",
"(  c #AC7368",
")  c #B67269",
"_  c #BB6772",
"`  c #BC7375",
"'  c #BD787B",
"]  c #D54856",
"[  c #D54F5B",
"{  c #CB506E",
"}  c #DA5666",
"|  c #C45878",
" . c #D85D72",
".. c #E25C68",
"X. c #EA5E78",
"o. c #DB666F",
"O. c #C6667B",
"+. c #DA6A7A",
"@. c #C1747A",
"#. c #C5777D",
"$. c #E3656D",
"%. c #E5687A",
"&. c #E6737B",
"*. c #9F8049",
"=. c #A6844D",
"-. c #A98857",
";. c #B18B5D",
":. c #AD925C",
">. c #B59868",
",. c #B48B73",
"<. c #BA9877",
"1. c #B9A16E",
"2. c #BBA57A",
"3. c #C28E7E",
"4. c #C0A67B",
"5. c #CA5880",
"6. c #CB6885",
"7. c #CB6B84",
"8. c #D06F8B",
"9. c #C67984",
"0. c #CD758C",
"q. c #CB7D8B",
"w. c #D4758A",
"e. c #D47A94",
"r. c #EC6E84",
"t. c #E97785",
"y. c #F3798B",
"u. c #E87B94",
"i. c #F67C95",
"p. c #BB8984",
"a. c #BB9785",
"s. c #BD9793",
"d. c #BDA685",
"f. c #BBAE8C",
"g. c #C6868B",
"h. c #DC8588",
"j. c #C19689",
"k. c #C68D94",
"l. c #CD8A93",
"z. c #D78798",
"x. c #C89697",
"c. c #D49699",
"v. c #E8868B",
"b. c #F2838E",
"n. c #E48999",
"m. c #F38C95",
"M. c #F6849A",
"N. c #E79499",
"B. c #F4949B",
"V. c #C2A488",
"C. c #C9AD96",
"Z. c #E0A39B",
"A. c #D88BA2",
"S. c #C89CA3",
"D. c #D694A3",
"F. c #D992A5",
"G. c #D79BA7",
"H. c #DB9FB0",
"J. c #F989A6",
"K. c #E897A6",
"L. c #EA92A9",
"P. c #F598A8",
"I. c #F998B4",
"U. c #CAA5AB",
"Y. c #D8A6AA",
"T. c #D7B3AC",
"R. c #CFACB1",
"E. c #DAA4B3",
"W. c #DAACB4",
"Q. c #D8ADB8",
"!. c #CCB5B9",
"~. c #D9B9B7",
"^. c #D4B3BB",
"/. c #DCB3BC",
"(. c #EBA6A5",
"). c #E4B7AC",
"_. c #E7A8B6",
"`. c #F5A6BB",
"'. c #E6B6BA",
"]. c #D7C0AE",
"[. c #CCC5BE",
"{. c #D9C5BA",
"}. c #DED4BB",
"|. c #E7C5B9",
" X c #E4D3B7",
".X c #FD9FC3",
"XX c #CCB9C1",
"oX c #D5BCC5",
"OX c #DBBAC5",
"+X c #F9AAC5",
"@X c #E7B9C7",
"#X c #F7B5CB",
"$X c #FABCD2",
"%X c #BCDADC",
"&X c #BFDEE1",
"*X c #CECAC9",
"=X c #D4C3CC",
"-X c #D9C7C8",
";X c #DAD2C7",
":X c #CDCBD1",
">X c #D3CDD3",
",X c #DBCBD7",
"<X c #CAD4D6",
"1X c #CED4D9",
"2X c #C4DADC",
"3X c #CCDCDC",
"4X c #D4D3D5",
"5X c #DCD4D4",
"6X c #D7DAD5",
"7X c #D4D5DC",
"8X c #DAD3DC",
"9X c #D4DADC",
"0X c #DBDCDD",
"qX c #E4C7CA",
"wX c #E4D5C9",
"eX c #E3CCD3",
"rX c #EAC8D7",
"tX c #F6C4D8",
"yX c #E4D6D8",
"uX c #DAE5CD",
"iX c #CBE1DE",
"pX c #D7E1DC",
"aX c #E4E2DB",
"sX c #DDCEE0",
"dX c #C2DEE2",
"fX c #CCDDE1",
"gX c #DCD6E2",
"hX c #D9D6E4",
"jX c #D4DCE1",
"kX c #DADCE3",
"lX c #F9CDE1",
"zX c #E8DAE5",
"xX c #F4D8E5",
"cX c #C5E0E4",
"vX c #CCE2E4",
"bX c #CDE5EA",
"nX c #D4E3E4",
"mX c #DBE3E5",
"MX c #DCE5E9",
"NX c #D7E9EB",
"BX c #D7EEF1",
"VX c #DAF2F2",
"CX c #E4E7EA",
"ZX c #F3E3ED",
"AX c #E5EDF2",
"SX c #EBEDF2",
"DX c #F1EBF3",
"FX c #EAF6F8",
"GX c #F0F4F8",
/* pixels */
"dXvX9XpXmXmXCXmXCXmXkX4XhXyXeX,XhX8X4X*X[.;X6XpX}.|. X).(.(.(.B.P.N.B.B.`.tX$XxXFXDXGXDXGXGXSXSXFXbX",
"bXvXnXpXCXCXCXmXkX9XhX8XhXgXsXgXgX9X4X*X[.0X6X[. XT.).T.).(.Z.B.B.B.B.m.P.`.$XxXZXZXGXGXxXFXFXFXFXbX",
"vXvXpXCXmXkX8XmXkX>XhX7XhXsXCXgX8X9X6X4X*XpX[.;X).).(.Z.B.B.B.B.B.m.b.b.m.J.+XZXGXDXGXGXGXSXFXFXFXbX",
"bXiXiXpXzX9X0XkXhX:X>XkXgXgXgXhX4XzXpX0X;X[.~.'.)._.c.v.N.b.3.m.m.b.b.y.M.I.+XxXGXDXxXzXzXSXSXAXVXBX",
"vXiXiXpX0XpX9XjXkXhXjXkX8XkXkXCX8X5XCX4X!.[.(.G.Z.c.h.m.3.b.m.B.m.&.y.y.J.+XtXlXDXxXtX$XDXFXFXAXAXBX",
"cXvXiXnXnXmXnX7XkXkX7X8X8XhXMXCXzX0X6X[.6X|.c.(.c.m.3.B.m.m.b.B.M.&.y.i.i.+XtXlXZXtXlXtXrXFXAXZXAXBX",
"cXvXvXpXNXnXnXjXhXkXhXgXnXMXmXCXCX0X0X[.5XK.n.c.N.v.&.b.&.y.&.b.y.t.i.i.i.I.I..XxX$X$XtXlXAXAXAXVXzX",
"cXdXvXpXnXnX9XkXMXMX,XhXNXMXmXMXVXpX6X!.'.N.&.v.3.v.&.y.3.&.&.y.y.r.r.i.I.J.J.I.lX+X$X$X$XrXyXsXsX$X",
"&XcXvXvXnXnXnXkXkXgXgXhX9XNX7XkXNXnX0X*X'.t.&.&.&.&.$.&.&.&.&.i.y.%.`.I.i.J.J.+XlX#X$XtX#X@X@X@XzXrX",
"&XcXvXiXvXnXnXnXzXgXzXgX7XjX9XjXMXnXpX8X@X%...$.X.$.$.$.v.y.%.`.tXL.L.M.i.i.I.lX$X$X#X$X@X@XOXOXgXBX",
"&XcXcX9XnXnXnXnXkXsXjX7XhXhX9XkXmXNX9X4X`.&.[ ..$.$.....y.J.J.`.$XzXF.I.I.i..XxXxXrXtXrXOXoXXXOXhXbX",
"%X&XcXfXvXnXnXbXjXsXjXsX7X9X9XkXmXpX0X4XP.%.] ] ] ......$.M.`.y.+XsX@XL.+XJ.J.J.+XAXVXkXXXXXQ.XXOXBX",
"%X&XcX3XvXvXbXvXjXhXhX4X4XjX9X6X9X:X6XyXL.%.] ] ] [ ....%.%.X.%.I._.+Xu.I.J.J.J.r.@XAXnX!.S.!.^.=XbX",
"%X%X2X3XvXvXbX3XhXhX7X>X9X0X0X7X6X4X>X-X#Xr.] m m m ] ....} [  .L..X+X+Xr.r.M.J.X.rXVXhXXXS.R.U.!.jX",
"%X2X2X3XiXvXvXcX<X4X8XyXmX7X0XnX1X6X*X~.`.y.] m 6 m m [ ]  .] %.u.+XL.#X`.r.%.`.@XZXzX7XU.S.U.S.U.:X",
"%X%X3X3X3XfXjX1XdX8X>X5X8X8X7XkXnX4X*XR.n.y...6 6 b n m m [ ] r.r.@X+XL.#Xu.I.ZXxXCXNXoXx.x.S.S.S.XX",
"<X2X2X1X3X9XjXfXfXfX:X1XjXhX4XnXNXnX6X^.z.r.} m z 6 b b n ] { } } t.J.n._.xXSXzXZXCXkXR.x.x.x.x.s.U.",
"1X2X2XdX3XjXvX7X<X1X1XjXjX9X4XhXmXpXCXeXz.t.[ ] b 6 6 n n ] o.} [ X.+.`.$XrXCXxXBXMX,XU.k.x.s.p.s.S.",
"%X%X2XfX3XvX3X3X7X1XjXjXkXjXjX9XmXkX6XqXH.t.} m m 6 m n n [ ] ] ] [ +.rXzXrX$XhXBXMXoXS.x.a.s.s.s.s.",
"%X<X1X1X4X3XfX1X4XiX7XjXNXhXkX0X0XzXkXyX_.n.u.] b n m  .{ |  .[ { } @XZXrX$X@XNXBX8XE.k.x.j.p.s.p.s.",
"<X1X1X>X1XhX7X4X4X3X7X9XnXzX0XyX5X5XmXzX@Xh._.n.{ n o.v.#.+.o.w.u._.CXyXzX@XqXpXBX7Xx.k.j.V.d.a.s.s.",
":X<X1X:X4X8X7X>X4X9X4X9XhXzX0X5X-X~.-X0XqXG.Y.W.z.u.8.+.v.O.o.{ n.AXyXyXrXrX@XNXVXoXS.k.j.d.f.<.s.s.",
"=X>X=X=X=XoX9X4X7X7X4X5XgX,X-X0XoXR.-X-XeX'.W.).h.#.O.w.h.g.9.l.AXaXqXqX0XeXNXVXNX!.U.k.a.<.C.d.s.s.",
"oX=X=X=XoXoXOXXX=X,X@X-XrX-XeX-XU.k./.yX0X@X~.T.c.` / w.l.x.p.|.}. X X|.uXpXaXNX9XoXR.p.j.<.f.d.s.( ",
"XXOXOXOXOXoXXXOX,XOXOX@XOXOXOX^./.k./.yXyX5X'.{.).c.3.l.c.3.c.|. X}.~._. X}.qXmX*X=X^.j.2.2.2.2.a.,.",
"E.Q.OXXXE.XXXXOXOXOX@X,XOXOXE.Q.OXS.U.-X;XwXqX;X{.Y.#.3.c.( ).).;XT.x.|.wX6X}.;X{.{.S.j.2.2.2.>.-.,.",
"H.E.E.E.E.Q.H.E.OXOX-X/.H.Q.G./.-XY.x.eX-X/.R.yXwXY.g.x.c.( |.|.|.T.).yXCXCXwX).{.~.C.V.C.f.f.f.,.>.",
"F.H.H.G.F.F.H.H./.Q.@XQ.F.G.S.@X'.E.g.'.Q./._ x.T.Y.j.c.,.c.#XwXqXaXrXqXaXaX'.).].{.C.C.1.1.:.f.f.f.",
"e.H.e.D.F.F.F.G.D.E.G.E.E.D.c.D.Q.W.g.W.W.W.Y.x.S.c.g.x.3.W.yXrXwX5XyXrXW. XY.;X].T.d.<.2.:.-.:.>.f.",
"e.e.e.A.F.A.F.F.D.D.D.G.D.D.x.z._.G.q.S.OX~._.9.' Y.x.x.9.G._._.Y.Y.OXR.x.{.;XT.~.V.p.a.f.:.*.*.-.>.",
"e.e.e.A.A.A.A.D.A.D.D.D.A.c.l.A.z.l.9.g.-X/./.Y.x.c.G.l.z.K.G.c.p.x.j.j.j.V.k.x.p.<.j.2.d.-.*.-.I :.",
"6.e.q.e.e.A.A.A.A.F.l.l.e.l.l.l.q.g.9.' c.Y.D.9.x.c.g.z.q.g.l.9.' l.) E ;.<.p.,.<.<.4.1.,.-.-.*.*.*.",
"5.6.0.e.e.A.e.A.F.A.q.z.e.q.9.@.9.g.@.` #.j.p.@.' 9./ @.9./ _ ` 9.( ( E E ;.4.4.>.3.>.:.;.;.=.=.I I ",
"6.6.0.0.8.A.A.e.A.e.q.e.q.0.7.O.g.@.@.` ` ` ' @.9.9./ ! Q Q Q / ` Q E T Y E =.;.;.;.;.;.;.=.=.d , p ",
"6.6.6.0.e.A.e.e.q.e.e.6.7.9./ _ @.@.` #./ _ / ` / ( ~ G L V L S L S U E Y d Y Y =.;.=.=.Y d a s p t ",
"5.5.6.0.8.e.e.0.q.e.8.6.7.7.^ _ @.@.#.#.R ) L T S L L L S V S B D T T P U a d d d =.Y d d a i p I p ",
"5.| 6.6.| 0.0.6.7.9.7.O.7.^ ^ ^ | @.@.) T F F F ( R S L Q S B N C T F P P s s d s =.I d d p t p I , ",
"M | | | | 6.6.6.7.0.O.O.^ ~ / ~ / @.@.) F F T ) R T D B R B N S N D D P a p r s s d d s s r , i , C ",
"v | | | | 5.6.6.O.#._ | ! ~ ~ ~ / / ) @.L A R R T F D A T D D C t C C r r p r r p s s i i i , , , , ",
"v v v W W | | 6.O.O.^ ~ J ! ~ ~ O.T / ) L S R E F U D A Z N C C q t t t r e r 8 u u u u 8 , > > ; < ",
"v v v W W W | | ^ ^ ^ J J J ! ~ / Q R O.F F U U F U A U A w y B 0 e 7 e r r 8 8 u u u u u 8 > ; 7 % ",
"x x v c H W W { W ! ! J J ! J ! [ L L R L Z F U a U U U A q B q 0 e 7 7 8 r 8 8 8 8 u u - , , > % $ ",
"x z x c c c H v J W J J J J J ! J K L L F F Z P y y U U F w 0 7 9 0 7 @ 8 7 8 7 - - - - , = * ; % $ ",
"z g z c k c c c c H H W K G J J J J L F F y y a y y y y C 0 0 7 % 9 = + 7 7 8 = - - - = = , ; $ X X ",
"g g g x z l l l l k H ! G G J K H G L G F B y y y e e y 0 7 0 5 7 7 % + > = 7 - * - * * * = ; $ $ $ ",
"f f g z h h l l h l c W V H J H G H F S w w y e r e e e 0 0 9 % > % % @ : * = = * * * * * * * O X X ",
"f f f h h h h l h k H H k V G G V F G V w w y e e 0 0 0 0 0 5 + > @ @ @ @ O * ; & & & & & * $ o X X ",
"1 1 f h h 4 h h h 4 l c 5 V V k l V V w w V F e 7 7 7 0 e 7 = 7 : = + @ = o & * & & & . & o . X X X ",
"1 1 # 3 2 3 3 5 3 4 k k 5 5 q V k V N 5 w w y 0 9 > 7 7 7 % = = @ @ O + O O O O . . . . . . . X   X ",
"# 2 # 1 2 3 3 3 4 3 k 4 5 5 5 k V j q 5 q q y 0 7 > % % 5 % + + + O O O O O O .       .   . X       "
};
