/* XPM */
static char *cb80d39482e84d1ab67cdcb74b351282Q1iEI1LH7EAUdayL[] = {
/* columns rows colors chars-per-pixel */
"50 50 225 2 ",
"   c #040101",
".  c #0B0402",
"X  c #0E0903",
"o  c #120603",
"O  c #1C0403",
"+  c #140B03",
"@  c #1B0C04",
"#  c #1A1106",
"$  c #1D1104",
"%  c #230E04",
"&  c #280E04",
"*  c #241305",
"=  c #2B1505",
"-  c #261805",
";  c #2D1A05",
":  c #2E1508",
">  c #271A09",
",  c #2C1B0B",
"<  c #331505",
"1  c #391606",
"2  c #341B05",
"3  c #3B1C06",
"4  c #331608",
"5  c #331C0A",
"6  c #3A1E09",
"7  c #322106",
"8  c #3E2106",
"9  c #34220B",
"0  c #3C230B",
"q  c #3E290D",
"w  c #292216",
"e  c #342715",
"r  c #3B2611",
"t  c #3E2A14",
"y  c #3B2818",
"u  c #3B2F21",
"i  c #431D06",
"p  c #491F06",
"a  c #431E08",
"s  c #521F0B",
"d  c #442206",
"f  c #4B2306",
"g  c #4C2907",
"h  c #44230B",
"j  c #4C2509",
"k  c #44290D",
"l  c #4D2A0B",
"z  c #532406",
"x  c #522A07",
"c  c #5B2D06",
"v  c #52260A",
"b  c #5B250C",
"n  c #542B0B",
"m  c #5B2D0B",
"M  c #5D3006",
"N  c #53300D",
"B  c #5D310C",
"V  c #422612",
"C  c #442C13",
"Z  c #4B2C12",
"A  c #432E19",
"S  c #4C2E19",
"D  c #522E13",
"F  c #5B2F12",
"G  c #522F18",
"H  c #4C3114",
"J  c #44331D",
"K  c #4C321C",
"L  c #543314",
"P  c #5B3313",
"I  c #583914",
"U  c #53351C",
"Y  c #5C361B",
"T  c #56391B",
"R  c #5B3B1C",
"E  c #622D06",
"W  c #622E09",
"Q  c #64330D",
"!  c #69370A",
"~  c #6A350C",
"^  c #6B390E",
"/  c #74370D",
"(  c #753C0D",
")  c #7B3D0D",
"_  c #6B2712",
"`  c #633611",
"'  c #6B3612",
"]  c #653A15",
"[  c #6C3B14",
"{  c #60371C",
"}  c #643B1C",
"|  c #6C3C1A",
" . c #733C13",
".. c #7B3E13",
"X. c #733F1A",
"o. c #493421",
"O. c #533621",
"+. c #543A23",
"@. c #5C3D22",
"#. c #593B27",
"$. c #633D22",
"%. c #6A3E20",
"&. c #603E28",
"*. c #7E420F",
"=. c #65401B",
"-. c #6C411D",
";. c #6E481C",
":. c #744115",
">. c #7C4214",
",. c #7C4815",
"<. c #74431B",
"1. c #7C451A",
"2. c #74491F",
"3. c #7D491C",
"4. c #5C4022",
"5. c #5F402A",
"6. c #644325",
"7. c #6C4323",
"8. c #6C4926",
"9. c #634229",
"0. c #6D4529",
"q. c #624828",
"w. c #6C4A2A",
"e. c #744522",
"r. c #794420",
"t. c #754A25",
"y. c #7C4B24",
"u. c #734729",
"i. c #744C2B",
"p. c #7A4E2B",
"a. c #745127",
"s. c #7C5226",
"d. c #75512E",
"f. c #7C522C",
"g. c #6D4E33",
"h. c #734D33",
"j. c #7A4D31",
"k. c #755032",
"l. c #7C5232",
"z. c #7E5539",
"x. c #803D16",
"c. c #83440E",
"v. c #88460F",
"b. c #834514",
"n. c #884713",
"m. c #814917",
"M. c #8C4A14",
"N. c #83471B",
"B. c #844A1C",
"V. c #8A4C1C",
"C. c #954D13",
"Z. c #994F15",
"A. c #914E1B",
"S. c #8D521D",
"D. c #9B5116",
"F. c #94521D",
"G. c #99541D",
"H. c #9F591E",
"J. c #824720",
"K. c #834C24",
"L. c #8A4D22",
"P. c #814D29",
"I. c #904E21",
"U. c #845224",
"Y. c #8C5325",
"T. c #845827",
"R. c #83542C",
"E. c #8C542C",
"W. c #845A2E",
"Q. c #8D592D",
"!. c #945423",
"~. c #9A5623",
"^. c #945924",
"/. c #9D5B24",
"(. c #935629",
"). c #935A2C",
"_. c #9A5C2B",
"`. c #825534",
"'. c #8C5632",
"]. c #865B35",
"[. c #8C5A33",
"{. c #845B3C",
"}. c #885B3A",
"|. c #945C33",
" X c #9A5D32",
".X c #A25D24",
"XX c #A25E2B",
"oX c #9B632F",
"OX c #8C613B",
"+X c #966034",
"@X c #9C6334",
"#X c #95633C",
"$X c #9C6439",
"%X c #9F6A38",
"&X c #A76025",
"*X c #A4632D",
"=X c #AA662D",
"-X c #AD692E",
";X c #A26435",
":X c #AA6532",
">X c #A46A36",
",X c #AC6B33",
"<X c #A3643A",
"1X c #A46B3C",
"2X c #AB6C3C",
"3X c #B26F31",
"4X c #AA703A",
"5X c #AB713C",
"6X c #B47235",
"7X c #B3733B",
"8X c #BA7738",
"9X c #966141",
"0X c #9D6641",
"qX c #A96D41",
"wX c #AD7441",
"eX c #AB764A",
"rX c #B27542",
"tX c #B57A41",
"yX c #BC7B44",
"uX c #B37C4B",
"iX c #A77A53",
"pX c #B67F51",
"aX c #BB814B",
"sX c #B2855E",
"dX c #C38340",
/* pixels */
"+ + X + + X X # @ + + + # X * # + + + # $ + - # $ + + o . + . . + + $ - # - 9 7 9 C H e I C t q # + ",
"+ # + + +   # $ # X # @ + X * # $ + $ * # + ; $ * $ + O + + . . # + 7 q $ 8 C 9 H e T K ;.L o.a.- e ",
"# # + + #   # - * @ $ $ * X > $ * @ $ = * @ 2 * ; % + @ @ @ . . - - k N > N r k I J 8.+.a.U J OXq e ",
"# + + + # . $ - - * * # * + 5 * * ; $ 2 - * 6 - ; - @ * + * + $ q 7 I =.H =.9 H T g.d.+.].R +.5.4.J ",
"# + + $ - + - 0 2 > , - = + 8 ; = 3 * 3 : = 0 ; 2 = % < o - * 2 k k ;.t.R u.D , =.{.f.R +X8.#.U q.4.",
"# # * 9 0 $ 9 l 8 0 9 8 6 + h 2 = 8 = 3 5 2 h 2 6 2 * = @ 8 3 g D H B.s.7.R.1.Z =.B.R.R +Xf.l.R a.4.",
"$ ; 5 C L , r ] D Z 9 9 d # n d 3 3 < h 6 3 n 6 3 3 = 3 ; d g N ] Y Q.Q.s.'.<.l H B l.;.$Xh.+X@.q.q.",
", q C U $.V V 2.P L S q g * n g d < i d h d n 8 d 8 2 g 6 n P [ 2.I oX+XQ.|.p.Z k N ].OX`.l.%X@.i.q.",
"t H U +.p.G G y.} D U P l * ] l d 3 j p h g n 3 g d d B h B ] :.K.Y 4XoX|._.[.#.-.L 2.l.1X[.1X7.6.8.",
"J T +.6.f.R G '.7.} U J B , ] m j v j j d j B 6 g x g | L ] <.3.R.$.8X%X>X|. Xh.Y., ] f. X'.%X| 4.q.",
"+.t K i.`.} $.`.7.| #.L P @ :.B n m n n n n m 6 n M N <.R 1.<.K.).7.7X#X5X X<XY ] * i.{.l `.`.u.T 4.",
"+.w u i.`.|.0.`.P.$.@.6.] $ B.^ B Q n n m m ` 6 m B Q 3.R B.y.Y.Q.u.7X%X1X$XY.Y ] e._.z.Z }.u.} q.6.",
"#.J O.l.{.|.$.E.p.} #.o.L % ] >.B B n m m B [ 0 B B  .N.P K.y.Q.|.i.7XqX@X X| k ;.7X^.t.2X[.0.i.=.q.",
"9.0.@.`.{.0X$.#Xe.} &.e.Y 6 ` >.~ m m B m B  .g :.:.B.!.] ).3.(.E.0.6XqX X'.Q.} R dX^.=.yX].j.p.w.a.",
"6.0.@.h.{.0X&.#Xu.u.$.#.Y 6 <. .~ g B ` ~ Q :.l ,.,.V.(.} '.U.Y. Xw.8X<X|.'.@Xf.+X7X6X-.rX`.R.y.g.8.",
"9.9.9.w.z.#X0.}.p.e.0.| ] h <.>.' d Q [ P ~ B.L S.1.Y./.| ).(.(.@Xl.8X X X<X|.@XW.uXyXt.1X[.f.p.8.8.",
"9.9.6.h.z.9X0.`.P.u.&.r.1.h 3.1. .l ^ ~ ~ ^ Y.P B.B.(.~.} _.).L.$Xl.8X<X|.(.@X>X`.sXaXi.<X}.p.i.q.I ",
"#.9.@.j.z.9Xu.`.'.e.%.u.' j y.N.' l ' ] ] | !.` S.,.K..XY ;X|.L.$Xh.8X@X X X<X2X|.iXaXl.qXp.f.R.=.4.",
"+.9.R i.k.|.$.`.P.u.%.X.N.V N.B.[ n ' [ :. .oX] 3.Y.Y.P.Y  X XY.<Xp.-X|.:X|.qX,XOXiXtX9.@XR.t.f.4.4.",
"O.#.+.6.h.'.u.`.P.r.0.X.X.j N.N.:.x | ` <.' &X] | ^.Y.L.} ;X|.Y.qX`.-X<XXX'.2X<X9XiXwXl.%XR.f.a.4.4.",
"K +.U 9.i.P.7.}.u.r.%.@.{ h K.b.:.x ' ] 3.P -X:.(.U.K.L.K.|._._.2Xf.:X2X|.'.7X XOXeX7Xd. XU.W.f.T T ",
"J K K $.0.'.$.|.$.y.{ O.[ 6 N.[ :.g [ | B. .*X<.-XB.L.K.Y.E.|.(.2Xj.:X2X'.K.2X@X`.iXuX`. Xp.f.W.I 4.",
"A J Z U $.P.Y |.@.J.$.{ %.6 L.b...n  .] B.1.-X| .X1.U.B._. X|.^.2Xi.XXqX'.X.@X7X}.pX7Xd.K.U.R.f.T T ",
"t A Z K $.y.Y <XY %.{ G r 6 N.M...l  .| B.B.3X] /.1.(.3.,XL.@X~.2Xp.XX1X7.J.%X7X`.pXwXp.K.p.s.d.I T ",
"r 9 C C Y u.Y %X{ %.%.G $.6 N.N. .g :.<.1.B.=X:.&XS.(.<._.(. X/.7Xe./.).1.N.).rXl.uXwX8.y.t.T.8.H H ",
"e 9 0 r Y } ] |.$.G Y S v a n.V.' g >.<.1.B.-X ./.L.L.7.=X!.;X.X2X| _.(.3.V.;X'.l.uX5X0.y.;.s.6.H H ",
"> 9 q 9 Y | S Q.$.Z A Z Z a J.F.W v m.1.B.3.,X| ~.L.(.X._.~._.=X2Xe.F./.| J.;Xp.l.wX5X} y.=.a.=.k H ",
"X > 5 , Z Y D U.Y G y 5 b 6 x.X.( v :.1.V. .-X] /.B.!.X._.(.XX=X,Xe.M..X3.J._.E.Q.5X4X} 3.R 3.I C q ",
"X * > 5 C P Z -.G _ s : 6 h x.n >.z >.1.3. .3X` ~.N.I.X.XXI._.=X,Xr.A..X!.X.oXU.[.>X4XR ,.I 2.H q q ",
"+ $ @ : h v Z | F 1 : 4 j a  .d ) z ' ' L. .-X` !.N.~.X.~._..X=X,Xr.A.A.A.K.(.K.`.>X4XH =.N ;.k q q ",
"+ @ + * 6 F k ] m b 6 1 b a W a ) z  .X.B...-XN V.V.I.| .X.X_..X-XX.G.F.!.1.(.S.Q.@X>XZ =.x ;.q 7 7 ",
"+ # + > 6 l h ` n v n 4 v 6 m p ) c ' >.B. ..XP F.M.A.' ~.~.XX.X:X<.D.V.V.>.Y.B.Q.).*XC ! N I q 7 7 ",
"X + + * > a 6 F z d l 4 n 3 W a x.~ ~ N.N.../.B F.V.V.| .XA..X.X=Xe.D.V.V...V. .(._._.C B g N ; 7 > ",
". . o + * 6 5 D v a 1 4 p 1 m v ) ' W ..V.m /.D F.>.>. .!.F.~.!..Xr.Z.N.V...U. .U.Y.!.k ` k d $ > - ",
". . . + : 4 * l j a 4 4 b < s j E  .' ..N. ..Xj V.b...[ 1.!.G.G..X<.C.b...^ :. .K.B.^.q B k d + - $ ",
"  . . . % , % V a g = 4 p 3 z p E Q ' ..N.>.H.l C...b.' L.M.!.G..X<.C.N. .~  ...3.B.S.9 g d 7 X - + ",
"  . . . + * % 4 p a = 3 < 2 j b c ' ~ ..b.>./.d n.) ..F  .A./.V..X..C.b./ Q ^ b.1.3.S.9 d 8 7   $ X ",
"    . . + % @ & 3 a % < a < p s W ` E ..>.*..Xh n.) ..F V.1.F.b.&X..C.)  .~ Q c.:.,.,.2 8 ; ; . # . ",
"    . + o O + % < a % = O < z s W b c  ...( .Xh v...b.n x.x.G.M..XX.Z./  .) m *.[ :.:.; 2 = ;   X . ",
"  .   o o + @ % = 1 O & 1 = z z c s W  .( *.H.d c./ v.s V...G.M.~.X.C.~ Q / z b.` ^ ^ 2 2 * @   . . ",
"      .   . + % & < o % O & a s z v c /  ./ Z.d c.) / s b.m.M.c.F. .x.E Q ! x ^ N B B - ; * .   .   ",
"          + o O & & o % & % i f i s z ~ ` / F.d ) ..~ D  .b.b.) A.Q ( W c c g W l g N * * *       . ",
"        . # o O O O o + O % 1 p 1 i p Q B ~ M.i ~ ~ Q v *.~ n.c.b.m ! c z M x x g 8 g + @ @     . . ",
"        o o . o + @ o . o % < 3 < 1 p z m B b.3 ! ~ d W >.W :.*.N.v W f g ^ x f i 2 8 + O +         ",
"        . o . . . o o . O @ & < & < i f g c ( 3 E z 3 ^ ~ b ~ !  .l c d g Q d 3 2 * ; + X o         ",
".       . . . . . . .   o o % & @ & 1 3 g f ! < x p < c g v B N ^ 8 g < 3 = 2 2 = $ * . . .   .     ",
"        . .   . . .     O o O @ o % - 6 5 3 M - d 3 = f < f x g B 2 g 1 = & * = % + @ . .     .     ",
"          . . .         . . o @ o O * < ; 2 g * i < * 3 = g g d c = 2 2 @ 2 * @ + X + .             ",
"          .                 o o   . * * * ; d $ 2 * * < = 3 8 ; d * 2 - + 2 $ @ . . X .             ",
"          .                 .   . . @ O + = 3 + 2 # $ = 2 = * * d $ 7 $ X . + X     .     .         "
};
