/* XPM */
static char *_0835e56812444f49eeaa74806162041AR5GR5R5M4a0yfNp[] = {
/* columns rows colors chars-per-pixel */
"50 50 248 2 ",
"   c #502B24",
".  c #722E23",
"X  c #6A3828",
"o  c #763828",
"O  c #5E452F",
"+  c #7B4735",
"@  c #734B38",
"#  c #775342",
"$  c #9C331C",
"%  c #AE2D12",
"&  c #B83D1D",
"*  c #8A3C29",
"=  c #963B27",
"-  c #8C3F30",
";  c #A53D27",
":  c #B43C25",
">  c #C43B1C",
",  c #C43E23",
"<  c #86432E",
"1  c #9C422C",
"2  c #834533",
"3  c #894A36",
"4  c #994A35",
"5  c #89553B",
"6  c #98543A",
"7  c #A9472B",
"8  c #B8482B",
"9  c #BE502E",
"0  c #A64C34",
"q  c #A84C36",
"w  c #B34733",
"e  c #BE4D32",
"r  c #A6553B",
"t  c #B65338",
"y  c #B65B3E",
"u  c #BC593C",
"i  c #9A6835",
"p  c #B9633F",
"a  c #A8733A",
"s  c #CB471D",
"d  c #C94729",
"f  c #C44C2C",
"g  c #D44A28",
"h  c #CA522C",
"j  c #D4532C",
"k  c #D8582B",
"l  c #C44C32",
"z  c #CA4D34",
"x  c #D24C34",
"c  c #C35333",
"v  c #CA5536",
"b  c #C3553B",
"n  c #C45C3C",
"m  c #CB5B3C",
"M  c #D45532",
"N  c #D65537",
"B  c #D35D35",
"V  c #DB5C33",
"C  c #D45C3B",
"Z  c #DB5C3B",
"A  c #E55C2D",
"S  c #E35D36",
"D  c #CB6337",
"F  c #CC623D",
"G  c #DB6233",
"H  c #D4643A",
"J  c #DC633B",
"K  c #DC6B3C",
"L  c #D9733A",
"P  c #E7672C",
"I  c #E36433",
"U  c #E66739",
"Y  c #E46B3B",
"T  c #EE7234",
"R  c #EB723C",
"E  c #E8783A",
"W  c #F27A3A",
"Q  c #895A48",
"!  c #985A45",
"~  c #A65D45",
"^  c #B75B42",
"/  c #89644A",
"(  c #97654A",
")  c #98704A",
"_  c #896955",
"`  c #976952",
"'  c #9B7559",
"]  c #A86749",
"[  c #B86848",
"{  c #B6744D",
"}  c #AA6D54",
"|  c #B76C52",
" . c #A97659",
".. c #B97758",
"X. c #987B63",
"o. c #A97D63",
"O. c #B77E63",
"+. c #C95D43",
"@. c #D45D44",
"#. c #C86647",
"$. c #C26B4C",
"%. c #CC6B4C",
"&. c #D46242",
"*. c #DA6543",
"=. c #D56D45",
"-. c #DB6B43",
";. c #D9644B",
":. c #D46C4B",
">. c #DD6D4B",
",. c #C9744A",
"<. c #DB734C",
"1. c #D7784B",
"2. c #C66E52",
"3. c #D56E52",
"4. c #CB7354",
"5. c #C67956",
"6. c #D37553",
"7. c #DC7553",
"8. c #D57A58",
"9. c #E36442",
"0. c #E66D45",
"q. c #E47445",
"w. c #E2744B",
"e. c #E87948",
"r. c #F27A44",
"t. c #E47D54",
"y. c #C77D63",
"u. c #EE843B",
"i. c #F2853D",
"p. c #B98653",
"a. c #9D856D",
"s. c #AB886B",
"d. c #B88768",
"f. c #B28F6F",
"g. c #B78D71",
"h. c #AA9679",
"j. c #B89575",
"k. c #BD9A7A",
"l. c #BDA37D",
"z. c #C8865A",
"x. c #D6835B",
"c. c #DB8759",
"v. c #D59055",
"b. c #E7834B",
"n. c #EB8549",
"m. c #F48A48",
"M. c #F69249",
"N. c #E88857",
"B. c #F48B54",
"V. c #E9955B",
"C. c #F19758",
"Z. c #E4A05A",
"A. c #C58767",
"S. c #CC8463",
"D. c #D98965",
"F. c #D38C6C",
"G. c #CA936C",
"H. c #D79467",
"J. c #DD936B",
"K. c #C48D70",
"L. c #C39374",
"P. c #CB9472",
"I. c #C69977",
"U. c #C49C7B",
"Y. c #CB9C7B",
"T. c #D69875",
"R. c #DB9C72",
"E. c #DC9D7A",
"W. c #E28C64",
"Q. c #E18F6B",
"!. c #E79868",
"~. c #F29664",
"^. c #E49A75",
"/. c #D8A667",
"(. c #CAA377",
"). c #CDA47B",
"_. c #D8AE70",
"`. c #D7A579",
"'. c #DBA37D",
"]. c #EAA56B",
"[. c #EFAD76",
"{. c #ECA67A",
"}. c #E7A879",
"|. c #F2AB76",
" X c #B09E84",
".X c #BCA586",
"XX c #C99E82",
"oX c #CCA382",
"OX c #C8AA86",
"+X c #D3A483",
"@X c #D5AA85",
"#X c #DBAB84",
"$X c #D7AB88",
"%X c #C6B28C",
"&X c #CCB38E",
"*X c #D4B28C",
"=X c #DBB48C",
"-X c #D8BA8B",
";X c #C9AD90",
":X c #C9B594",
">X c #CEBA92",
",X c #D3B491",
"<X c #DCB693",
"1X c #D4BA94",
"2X c #DBBC95",
"3X c #D3BC9B",
"4X c #DDBC9B",
"5X c #E2AC84",
"6X c #E7AC84",
"7X c #E7B68A",
"8X c #EFB58B",
"9X c #E4BB94",
"0X c #E6BA94",
"qX c #DEBEA0",
"wX c #CFC296",
"eX c #D7C196",
"rX c #D5C39D",
"tX c #DBC49C",
"yX c #DECA9C",
"uX c #EECD94",
"iX c #E3C49B",
"pX c #E6C799",
"aX c #D9C7A3",
"sX c #DDCBAA",
"dX c #DED1A9",
"fX c #DED1B4",
"gX c #E7C8A3",
"hX c #E3CCA4",
"jX c #E3CDAA",
"kX c #E5D2A5",
"lX c #E3D3AB",
"zX c #ECD4AC",
"xX c #EAD8AA",
"cX c #F3D3A7",
"vX c #E3D5B2",
"bX c #E4DBB3",
"nX c #EBDBB3",
"mX c #E5D8B8",
"MX c #EBDDBB",
"NX c #F2DEB7",
"BX c #EBE1B5",
"VX c #EDE3BC",
"CX c #EFE9BE",
"ZX c #F3E6BB",
"AX c #EBE5C6",
"SX c #F6E9C4",
"DX c #F5ECC4",
"FX c #EEEDD0",
/* pixels */
"* r p 9 ` 4 oX+ 3 ! 3 VX8.8 8 Y.O.] o.K.9Xd.] ..d.OX..d. .oX{.~.~.!.R.j.g.' ! I. .d.O.k.s./ / /  .3X",
"a.h.eXh.%X&Xs.yXSX9Xj.9X3XaX;X=X+XzXgXfXeX*XnXpX2XiX9X=XfX.XA.A. ._ o.o. .,X:X<XaXOXkX*Xh.X.' (.j.f.",
"+ 2 ) 3 + + ! . Q t.r.0.M U r.J r.B.y.W.B.C.n.m.M.M.m.^.S.~ e 4 2 ( ] Q ..O.o 3 + o < 2 X X O [ C 1 ",
"1 0 + 4 4 4 ~ r &X>.C 0.m =.>.r.q.N.T.I e.w.7.].e.w.~.6X} -  .o ~ ` ] 5.z.I.4 3 5 . 6 X o O 5 #.h 7 ",
"` j._ o.' o.o.! ,XL.XXF.A.E.F.D.J.T.9Xx.4.c.y F.H.P.Q.`.d.E.@X9X=XY.j.I.s.sXj.oX' iX_ s.aXtXeX>Xh..X",
"OX' o.oXOXd.k.oXXX3X<X=XpX5X3XXXMX#X5XvX5.G.G.R.kXI.pX7XuXpXs._ / ).SX9X#Xy.5X .Q @ ` h.` $.] V.(.f.",
"d.; - =   = ~ ! q I.J M Y U =X0.*.Y r.9X#.^ %.,.^.t.w.N.0.iX+ + ( ( 8XT e.r.R o.1 < {  .' 7 c 7 p./ ",
"I.* o * ! * ! ^ w j.&.&.H d =X&.@.:.*.cX] 6 ] 5.{.A V I P #Xi { ] ] 8X-.-.;.c XX4 q 6 ] a.= 8 *  .a.",
").O # / 9X(.f.d.K.SXiXE.E.F.nXaX*XXX7XDXoXd.).Y.hX}.{.R.H.SX=XiX-X2XhX..A.A.L.jXoX&X;X:XyX%XOXl.;Xh.",
"a.' o.s.s.I...MX7Xg.#X'.E.6X].|.^.DXjXf.d.9XE.K.I.` o.jXk.L.g.I.K.{.| ! s.=X~ ~ ~ ] ! 3 4 ~  .j.+ + ",
"3 + + 2 0 &.: jXf f v t 7 y u h =.xX. 4 Q ] ~ | ! ( * 5Xr 6 r y ] #.< 4 [ oX~ ! ! Q ~ 6 6 3 ~  .+ + ",
",.e.1.0.r.t.& CX% : d : f F Y R A aXw q | ....r ] | 1 pXF 6.H.y r ^ t q 2.P.- q ; ~ w w *  .(.` 8 r ",
"Q  .] 3 } 4 ] :X} K.@X$XI.T.{.A.#XVX..K.=X=X@X>XgX<XpXnX1XnXlXlXlXkXkXxXhXlXjXSXjXqXaXaXzXhXkX&Xh.' ",
"h.k.XXj.j.` ] 5.] (.].[.[.8X'.H.uXT.<XiX..T.@XiX5.%.N.1.$Xc.H.N.t.uX%.N U V 6X+.[ 5.^ 9Xd.0 4 X @ ' ",
"@ Q - 2 3 r [ y ..c.r.E m.V.!.b.n.F 7X..] ( ] Y.x.5.8.<.Q.~ { t.q.R.w.0.:.&.T.b 0 ^ t #Xo.4 ! 3 / _ ",
"# # # - } [ [ 5.A.!.P Y i.V.2.-.9 v 6.! o r 0 ,X^ [ q = d.#X] { y g.$.w 8 z K.^ 4.^ q =Xp.0 6 i 5 # ",
"' _ @ s.4Xg.s.oXOX-XA.).7XzX$XP.G.T.nX_.kXxX1XZXeXyXkXkXkXxXxX-X2XiXiXyXiXyXxXaXxXkXnXtX>XkXeXpXpX1X",
"h.G.F.y.S.S.+XgXI.T.}.5X6X6X8XR.gX!.H.}.v.N.,.<.w.B #XN.c.N.n.N.n.q.b.J tX:.F :.=.[ { A.{ { @X+ ' / ",
"..z.~ ^ q q 5.zX,.!.1.e.B.B.w.r.F.m.m.n.n.j I I G P [ B.W.8.W.W.*.w.*.g @Xc.-.&.[ ^ ,.[ ,.H.L.@ ) O ",
"1 * 4 4 * 7 ^ S.: 7 >.<.:.:.&.I '.T E m.I I P k g > A.v x.<.3.S.8.x.l c iX] y 5.~ 2.0 r { ..*X .( Q ",
"OXOX' _ .X<X2XaX4X*XrXaXyXaX3XaXvXiXpX9X<X2X-XcXZXBXyX>X,XeXDXAXDXjXZXZXxXl.kX).jXvXBXDXVXvXnXdXwX>X",
"}.{ (.eXA.>.%.t.8.] $.+.b <XR.!.H.W.<Xx./.|.H.(.h B 1.=.] W.J C.C.9X+X=.m #.}.pX_.H.H.i tX4.2.q 5.2X",
"F c F U S.Z *.S <.#.0.b 3.+XK E U r.J.i H.{ Z.G.s % & &  .V q.e.r.|.Q.@.Z N ^.pXp.z.G./.Q.z v t 5.[.",
"y 7 h Y ..& 5.| u S.8.v U @Xc -.K 1.T.[ [ ,.,.`.% & & d H.f K d V Q.F.$.+.@.,.' 5 3 i ) y.v 8 = ) }.",
"h.yX;X9XZX3Xh.fXCXkX X:Xh.aXxXwX3XeXyXd.' X.' %XuXuXcXkXZXBXdXBXj.eXl.( ' l.yXZXwX3XdXfXlXdXdXbXVXmX",
"x.T.H.R.1XnXDX'._.uX-X-XpXcXyXyXcX7X7X7X#X8X$X5XT.(.z.J.,.b.V.5.F F x./.pX1.x.p.1.B H.F H H.%Xm 6.5.",
":.Y i.u.Y #.oXp. ./.v.p.i a /._.e.I R Y E D K K E }.}.r.0.Y N B.G Y R K r n.N.M.c.L b.N.C.].nX% d I ",
"1 p 1.k W W y.q z.p.p.p.i i v._.L T E L E n.B E L [.'.G N h G <.=.& H =.{ n.b.n.C.V.u.n.u.[.vXw.6.{ ",
"1X:XrXs.@X#XtX*X$XoXk.XXf.f.j.%X,X-X5XpX`.9XxX7XnXhXvX4XjXjX1X@X1XI.<X(.>XjXiXlXVXnXBXDXMX9X2XjXbXxX",
"+ r B.c.'.8.7.b A.1X}.8.:.P.(.,.5.z.eXW.N.-.w.mX^.R q.*.F.!.~.B.t.P.J.6.8.1.'.[.E e.U n.9XM v S =.OX",
"< r.Y t.J.z e l 8.y.;.7.1.5X,.F ,.z.`.0.R Y V E.w.r.e.0.E.^.>.>.>.^.%.0.t.c.T.|.M.M.M.C.F.M 9.I :.5.",
"t j G F.D.k z N $.g.w t ^ L.v.b.,.D (.6.I k S 5X[ %.8.u <X;.&.*.d !.| -.6.%.A.6XV.n.b.[.5Xt u b G...",
"s.) d..XOXY.A.I.qXaXaXjX:XaX,X*X2X&XMXAXFXmXmXAXmXtXlXMXmXSXmXmXaXaX3XrXnXdXVXvXrXtXnXiXfXDXAXxX>XrX",
"V...O.$.x.8XT.D.4.8.8.8.D.W.5X+Xb.b.n.n.b.~.n.N.n.aX4.n m b 6.9.N >.S iX:.N &.m m Z C *.q.l.j C h M ",
"7 8 H J V =.6.@.b +.@.@.v @.9.D.U 0.9.0.N.e.B.m.W fXv +.%.w.%.:.0.3.+.I.r Z Z 9.#.w.9.0.Z T.d &.n c ",
"= $ 7 7 , vX^ 8 l l @.: x x x E.j Y I M A Y G V S AX^ : b +.#.b ^ = = d.2.Z :.&.#.5.8.2.%.@Xz.[ [ [ ",
"s.j.oX@X@X3X3X&X,XXXg.oXP.S.d.oXjX@XsXmXqXjXMXzXvXSXmXAXfXlXsXlXmX<XSXk.OXwXVXMXbXlXmXlXdX1XvXCXBXBX",
"b.C.v.7XeXV.x.R.A.Y.+X+XXXqX^.D.^.0XjX7XW.Q.Q.cXF.3.;.@.7X'.;.W.t.NX3.#.5.y.4X`.7XuXuX1XA.y n : '.| ",
"M.i.u.b.pXE M.E 1.2.N y , vXg 4.4.1.t.^.x r.S 0Xf @.;.W.xXS 9.N 9.6X+.@.7.;.qXy./.z.v.(.^ c l g 5.] ",
"u.u.u.V. .u.K N.7.3.0.@.x gXg @.N x x 6X, V A 8Xx N *.x gXq.Z h x jX; @.e w $Xy.z.Z.V.S.d.f n n >Xz.",
").%X-XBX&X] 6 ] ,XmX$X+XF.AXoXoXXXfXfXvXgXqX+XzX#X9X9X7XZXZXmXMXVXMXrXo..XjXvXnXyX&XsXkX>XfXwXBXCXdX",
"_.].V.Z.|.}.pX!.N.!.!.|.{.|.|.0X9X6.D.7.8.6.#.8.y.4XF.^.{.6X{.8.3.%.3.E.E.F.7.%.4.5.%.%.6.7XJ.F <.F ",
"u.u.u.i.M.m.9XE J K 0.K K M Z q.F.6.+.%.+.+.%.+.+.E.W.U 9.0.9.9.;.@.x E.8.@.z @.[ [ C c H R.,.m [ 9 ",
"P T T u.u.u.8Xk j V j d j M g =.S.v f +.&.e e l , Q.%.S q.S 9.9.@.3.x Q.2.t N v r 0 m 8.y F.(.8 p [ ",
"yXyX-XuXuXgXtX9X+X| <X9XP...oXsXsXOX3XaXaXfXmXqXvXqX:X} K.I.' d.&XI.j.jXlX@XS.A.j.p.5.G.`.wX%X>X%X-X",
"9 8 9 ,.2.8 u 4.0XH.V.N.r.mX7.!.{.D.mXE.D.D.W.gX0X8.5.2.9XW.8.2.3.zXQ.!.].~.jXS.7.6.u H.`.1.Y U C...",
"p p L { u 7 l d #XR W R U gXM n.R J 9Xd , d d F.t.S :.^ #XS N Z x hXU i.E P NX8.0.*.P v.}.P G j x.6 ",
"7 { p A.i 1 n =.0XN.c.I I jXc g C g 7X& g g , 8.M H 2.C Q.g M M g pXh 2.K V kX6.P v j x.D.s D L v.q ",
"eXf.k.).pXkX&XI.+XgX2XY.=XzXrXgXXX+XmXsXK.P.XXjX+XK.hXaXnX1X#X).T.nX{ A.j.rX2X*X`.-X).tXVXyXBXBXaXh.",
"1 h 9 D c x.D.8 9 f +.m v e *.'.7.C U w.w.W.6.+...T.gX}.[.{.Q.].c.<.e.x.b.N.!.c.v.R.D.V.b.(.P P G y "
};
